<svg xmlns="http://www.w3.org/2000/svg" viewBox="0 0 357.5675 357.5675" fill="#ff1a1a"><path d="M178.795 234.654c-12.302 0-22.315 10.012-22.315 22.325 0 12.29 10.013 22.303 22.315 22.303 12.303 0 22.304-10.012 22.304-22.304-.001-12.313-10.001-22.325-22.304-22.325m0-156.246c-12.805 0-22.494 6.683-22.494 17.477v99.002c0 10.804 9.688 17.464 22.494 17.464 12.493 0 22.494-6.939 22.494-17.464V95.884c-.001-10.538-10.001-17.477-22.494-17.477m-.011 245.639c-80.229 0-145.261-65.034-145.261-145.262 0-80.23 65.032-145.262 145.26-145.262 80.23 0 145.262 65.033 145.262 145.262 0 80.228-65.032 145.262-145.261 145.262m0-324.046C80.05 0 0 80.05 0 178.783c0 98.745 80.05 178.784 178.784 178.784 98.745 0 178.784-80.026 178.784-178.784C357.568 80.05 277.528 0 178.784 0"/></svg>