<svg xmlns="http://www.w3.org/2000/svg" viewBox="0 0 639.90253 639.99878" fill="url(#a)"><linearGradient id="a" x1="0%" y1="37%" y2="63%"><stop offset="0%" stop-color="#3963c8"/><stop offset="100%" stop-color="#5f3aa1"/></linearGradient><path d="M578.572 0c-41.515.069-84.522 10.68-126.63 31.47-44.353 21.9-71.882 47.05-73.032 48.11-.045.041-.081.088-.125.129-.047.045-.098.083-.144.129L225.28 232.932l-35.28-35.276-.001-.002s0-.004-.002-.004c-18.46-18.428-48.471-18.449-66.902-.046l-28.79 28.783c-3.66 3.661-3.663 9.597-.001 13.26a9.345 9.345 0 0 0 6.63 2.746 9.348 9.348 0 0 0 6.63-2.745l28.785-28.779c11.122-11.106 29.247-11.083 40.402.053l35.26 35.258-82.463 82.318-19.992-19.99a9.375 9.375 0 0 0-11.184-1.567l-59.115 32.832-15.908-15.908 55.931-55.928a9.374 9.374 0 0 0 0-13.257 9.374 9.374 0 0 0-13.26 0L3.463 317.234a9.374 9.374 0 0 0 0 13.258L31 358.033c2.92 2.92 7.57 3.575 11.182 1.567l59.115-32.834 39.457 39.455c-13.473 6.522-19.03 23.232-12.498 36.644 3.317 6.813 9.87 12.028 15.154 17.31-24.541-2.66-50.044 5.27-68.969 23.866-3.665 3.599-3.692 9.683-.058 13.318l107.004 107.004c3.591 3.59 9.578 3.62 13.2.057 15.967-15.694 24.854-36.584 25.028-58.824a85.213 85.213 0 0 0-.502-9.715c5.797 5.796 11.385 12.8 19.229 15.8 13.061 4.997 28.398-.733 34.586-13.322l39.453 39.487-31.906 60.299a9.374 9.374 0 0 0 1.658 11.013l27.623 27.623a9.345 9.345 0 0 0 6.63 2.746 9.341 9.341 0 0 0 6.628-2.744l119.89-119.885c18.208-18.172 18.211-48.52.006-66.697l-36.389-36.39 153.196-152.936c.046-.046.086-.097.13-.145.04-.04.084-.076.124-.119 1.063-1.147 26.31-28.634 48.3-72.918 29.053-58.492 38.327-118.722 26.848-174.267a9.364 9.364 0 0 0-2.758-5.887l-.09-.09a9.37 9.37 0 0 0-5.79-2.666C610.834 1.561 594.817-.027 578.571 0zm1.002 18.715a216.984 216.984 0 0 1 38.147 3.469c11.4 62.713-7.64 119.558-25.992 156.67-14.383 29.083-30.544 50.843-39.211 61.572l-23.252-23.21c-8.554-8.537-21.819 4.72-13.246 13.274l23.8 23.754-242.45 242.041-29.065-29.058c-.237-.254-.452-.522-.7-.77l-24.798-24.793 112.539-112.541c27.288 10.483 58.98 4.871 80.867-14.535 20.861-18.498 30.503-47.151 25.066-74.506-3.025-15.221-10.652-29.307-21.63-40.262-18.852-18.82-46.57-26.87-72.59-21.273-27.64 5.944-50.632 26.975-58.856 54.062-5.229 17.218-4.372 36.133 2.438 52.791L198.596 397.455l-25.963-25.96c-.27-.272-.566-.502-.844-.759l-28.982-28.974L385.257 99.73l100.94 100.938c8.547 8.546 21.822-4.697 13.258-13.26L399.12 87.068c22.546-18.049 93.512-68.618 180.455-68.353zm-195.77 176.787c15.427 0 30.854 5.864 42.596 17.59 11.38 11.352 17.647 26.443 17.647 42.496 0 16.051-6.27 31.14-17.647 42.492-17.752 17.753-46.447 21.87-68.273 11.875-17.724-8.116-29.413-22.669-33.406-42.57-3.928-19.565 2.379-40.217 16.49-54.297 11.744-11.724 27.167-17.586 42.594-17.586zm-63.607 106.861a79.074 79.074 0 0 0 17.88 17.506L229.55 428.404l-17.694-17.693 108.342-108.348zm-167.299 79.723c1.882-.073 3.868.518 5.739 2.016l96.34 96.316a8.995 8.995 0 0 1 2.027 5.705c0 7.838-9.692 11.42-15.117 6.014l-94.977-94.975c-6.101-6.09-.73-14.815 5.988-15.076zm240.356 44.973l36.404 36.41c10.966 10.95 10.962 29.217-.006 40.166L316.385 616.896l-16.1-16.1 31.908-60.294a9.376 9.376 0 0 0-1.656-11.014l-19.924-19.931 82.64-82.498zm-258.19 11.359c16.027.222 31.978 6.188 44.454 17.871 13.253 13.251 21.49 30.16 21.343 49.162-.108 14.114-4.757 27.537-13.25 38.623l-92.806-92.808c11.92-8.768 26.118-13.044 40.26-12.848zm-57.11 51.352c-2.045.06-4.142.886-6.016 2.757L2.675 561.695c-5.778 5.772-1.569 16.012 6.625 16.012a9.346 9.346 0 0 0 6.625-2.742l69.263-69.168c6.68-6.672.065-16.24-7.236-16.027zm31.798 31.148a9.34 9.34 0 0 0-6.63 2.742L3.288 623.361c-8.526 8.515 4.667 21.843 13.252 13.266l99.83-99.7a9.373 9.373 0 0 0 .008-13.257 9.347 9.347 0 0 0-6.627-2.752zm30.57 31.111c-2.044.06-4.141.888-6.015 2.76l-69.252 69.176c-8.528 8.515 4.665 21.842 13.25 13.265l69.254-69.175c6.677-6.671.062-16.24-7.237-16.026z"/></svg>