<svg xmlns="http://www.w3.org/2000/svg" viewBox="0 0 639.9975 635.65875" fill="url(#a)"><linearGradient id="a" x1="0%" y1="37%" y2="63%"><stop offset="0%" stop-color="#3963c8"/><stop offset="100%" stop-color="#5f3aa1"/></linearGradient><path d="M358.256.002c-3.025-.067-6.048 1.3-7.902 3.9l-97.032 135.993H130.268a9.387 9.387 0 0 0-9.387 9.386c0 5.185 4.203 9.389 9.387 9.389h127.875l.005.002.012-.002h284.77l.037.002.045-.002h78.21v318.322h-108.37c-5.187 0-9.387 4.204-9.387 9.389 0 5.184 4.2 9.389 9.387 9.389h117.76c5.184 0 9.386-4.205 9.386-9.39v-337.1c.003-5.184-4.202-9.387-9.387-9.387h-81.656L513.98 64.47c-2.15-4.635-7.824-6.72-12.465-4.567l-34.246 15.881-103.82-74.074a9.267 9.267 0 0 0-5.192-1.709zm1.93 22.447l87.488 62.422-118.647 55.024h-52.636l83.795-117.446zm140.709 58.438l27.363 59.006H373.66l127.235-59.006zM9.389 139.893c-5.185 0-9.389 4.203-9.389 9.386v337.1a9.389 9.389 0 0 0 9.389 9.389h81.656l34.976 75.42c2.153 4.64 7.82 6.723 12.465 4.566l34.248-15.88 103.819 74.073c4.166 2.972 10.127 1.968 13.095-2.19l97.03-135.991h88.625c5.183 0 9.388-4.204 9.388-9.389-.002-5.183-4.206-9.387-9.39-9.387H18.775V158.668h73.94a9.389 9.389 0 0 0 9.389-9.389c0-5.183-4.204-9.386-9.39-9.386H9.39zm98.992 46.002c-5.184 0-9.389 4.201-9.389 9.386 0 25.083-20.096 47.082-43.008 47.082-5.183 0-9.388 4.204-9.388 9.389v132.144c0 5.184 4.205 9.387 9.388 9.387 22.912 0 43.008 22.004 43.008 47.084 0 5.184 4.205 9.387 9.389 9.387h94.588a9.389 9.389 0 0 0 0-18.775H117.07c-1.95-13.174-7.921-25.93-17.035-36.024-9.62-10.654-21.68-17.443-34.664-19.654V260.346c12.983-2.214 25.043-9 34.664-19.655 9.114-10.093 15.085-22.85 17.035-36.023h400.88c4.734 26.985 29.152 50.88 56.677 55.44v115.43c-27.525 4.557-51.943 28.456-56.678 55.44H240.523c-5.185 0-9.39 4.202-9.39 9.385a9.39 9.39 0 0 0 9.39 9.393h285.989a9.386 9.386 0 0 0 9.388-9.387c0-23.635 23.834-46.832 48.116-46.832a9.388 9.388 0 0 0 9.388-9.389V251.502a9.388 9.388 0 0 0-9.388-9.389c-24.282 0-48.116-23.197-48.116-46.832a9.386 9.386 0 0 0-9.388-9.386H108.38zM320 228.344c-49.406 0-89.602 40.194-89.602 89.601s40.196 89.602 89.602 89.602c49.406 0 89.602-40.195 89.602-89.602 0-49.406-40.196-89.601-89.602-89.601zm0 18.777c39.053 0 70.824 31.77 70.824 70.824 0 39.053-31.772 70.825-70.824 70.825-39.053 0-70.824-31.772-70.824-70.825 0-39.052 31.772-70.824 70.824-70.824zM111.742 495.768H266.34L139.104 554.77l-27.362-59.003zm199.23 0h52.637L279.816 613.21l-87.49-62.424 118.647-55.02z"/></svg>