<svg xmlns="http://www.w3.org/2000/svg" viewBox="0 0 367.69501 334.80499" fill="url(#a)"><linearGradient id="a" x1="0%" y1="37%" y2="63%"><stop offset="0%" stop-color="#3963c8"/><stop offset="100%" stop-color="#5f3aa1"/></linearGradient><path d="M183.842 0a183.233 183.233 0 0 0-98.836 28.8 6.249 6.249 0 0 0-2.09 8.589 6.249 6.249 0 0 0 8.588 2.09c.077-.05.155-.098.23-.149 79.71-50.995 185.667-27.718 236.662 51.992 48.885 76.412 29.742 177.683-43.66 230.979H82.966c-76.48-55.684-93.34-162.824-37.655-239.305 3.27-4.49 6.754-8.82 10.445-12.97a6.25 6.25 0 1 0-9.34-8.305c-67.432 75.876-60.587 192.05 15.29 259.482a183.956 183.956 0 0 0 15.636 12.442 6.238 6.238 0 0 0 3.625 1.16h205.765a6.256 6.256 0 0 0 3.63-1.16c82.744-58.82 102.142-173.578 43.324-256.325A183.817 183.817 0 0 0 183.842 0zM68.336 42.639a6.233 6.233 0 0 0-3.746 1.297l-1.998 1.714a6.248 6.248 0 0 0 4.129 10.94l.02-.016a6.224 6.224 0 0 0 4.126-1.558l1.824-1.58a6.253 6.253 0 0 0 .26-8.836 6.243 6.243 0 0 0-4.615-1.961zm115.506 3.109c-36.027 0-72.054 13.722-99.57 41.166-.096.086-.216.116-.311.205-.095.091-.12.217-.205.31-54.804 54.903-54.9 143.782-.219 198.807.19.474.563.85 1.035 1.045 2.379 2.355 4.815 4.658 7.375 6.86a6.232 6.232 0 0 0 4.069 1.498h130.95a6.25 6.25 0 1 0 0-12.5H98.343c-.325-.29-.626-.593-.951-.889l9.41-9.35a6.25 6.25 0 1 0-8.84-8.84l-9.404 9.405a128.493 128.493 0 0 1-33.301-80.195H68.64a6.25 6.25 0 1 0 0-12.5H55.252a128.247 128.247 0 0 1 33.28-80.22l9.429 9.43a6.248 6.248 0 0 0 8.84 0 6.253 6.253 0 0 0 0-8.84l-9.43-9.43a128.253 128.253 0 0 1 80.22-33.31v13.4a6.25 6.25 0 1 0 12.5 0V58.4a128.25 128.25 0 0 1 80.22 33.28l-9.43 9.43a6.251 6.251 0 0 0 8.84 8.842l9.43-9.43a128.229 128.229 0 0 1 33.279 80.228H299.04a6.25 6.25 0 0 0 0 12.5h13.379a128.44 128.44 0 0 1-33.32 80.15l-9.38-9.38a6.266 6.266 0 0 0-8.84 8.88l9.372 9.371c-.885.805-1.75 1.63-2.66 2.41a6.241 6.241 0 0 0 8.135 9.467l.01-.007c2.56-2.202 5-4.5 7.384-6.866.208-.122.408-.255.6-.4.155-.201.295-.41.42-.629 54.687-55.025 54.59-143.91-.215-198.816-.085-.094-.114-.22-.205-.31-.09-.09-.215-.12-.31-.206-27.517-27.444-63.543-41.166-99.57-41.166zm0 53.541a6.25 6.25 0 0 0-6.25 6.25v68.611c-10.13 3.452-15.541 14.461-12.09 24.59 3.452 10.128 14.46 15.54 24.59 12.088 10.129-3.45 15.54-14.46 12.088-24.588a19.368 19.368 0 0 0-12.088-12.09v-68.61a6.25 6.25 0 0 0-6.25-6.25zm0 86.25c3.79 0 6.866 3.07 6.875 6.861a6.88 6.88 0 0 1-6.875 6.875v.014a6.875 6.875 0 0 1 0-13.75z"/></svg>