<svg xmlns="http://www.w3.org/2000/svg" viewBox="0 0 640 639.72748" fill="url(#a)"><linearGradient id="a" x1="0%" y1="37%" y2="63%"><stop offset="0%" stop-color="#3963c8"/><stop offset="100%" stop-color="#5f3aa1"/></linearGradient><path d="M56.838 0C25.495 0 0 25.499 0 56.84v483.275c0 31.341 25.495 56.838 56.838 56.838h56.912v33.399a9.373 9.373 0 0 0 9.375 9.375h116.25a9.374 9.374 0 0 0 9.375-9.375v-33.399H392.5v33.399a9.373 9.373 0 0 0 9.375 9.375h116.25a9.374 9.374 0 0 0 9.375-9.375v-33.399h55.66c31.343 0 56.84-25.495 56.84-56.838V56.84C640 25.499 614.503 0 583.16 0H158.75c-12.091 0-12.091 18.75 0 18.75h424.41c21.003 0 38.09 17.087 38.09 38.09v483.275c0 21.001-17.087 38.088-38.09 38.088H56.838c-21.003 0-38.088-17.087-38.088-38.088v-94.984H57.5v47.656c0 25.291 20.577 45.867 45.867 45.867H437.5c12.091 0 12.091-18.75 0-18.75H103.367c-14.952 0-27.117-12.164-27.117-27.117v-47.656h29.832a9.374 9.374 0 0 0 9.375-9.375v-57.004a9.374 9.374 0 0 0-9.375-9.375H76.25V227.578h29.832a9.374 9.374 0 0 0 9.375-9.375V161.2a9.374 9.374 0 0 0-9.375-9.375H76.25v-47.658c0-14.952 12.165-27.115 27.117-27.115h433.266c14.952 0 27.117 12.163 27.117 27.115v102.916h-14.908c-20.646 0-37.446 16.799-37.446 37.447v117.309c0 20.589 16.75 37.342 37.338 37.342h15.016v93.607c0 14.953-12.165 27.117-27.117 27.117H483.75c-12.092 0-12.092 18.75 0 18.75h52.883c25.29 0 45.867-20.576 45.867-45.867V104.166c0-25.29-20.577-45.865-45.867-45.865H103.367c-25.29 0-45.867 20.575-45.867 45.865v47.656H18.75V56.84c0-21.003 17.085-38.09 38.088-38.09H105c12.091 0 12.091-18.75 0-18.75H56.838zM18.75 170.572h77.957v38.256H18.75v-38.256zM320 201.15c-53.666 0-97.326 43.662-97.326 97.329 0 53.666 43.66 97.326 97.326 97.326s97.326-43.661 97.326-97.326c0-53.665-43.66-97.329-97.326-97.329zm-9.375 19.329v30.607c-10.665 2.106-20.074 7.734-26.973 15.615l-26.04-15.914c12.576-16.415 31.467-27.733 53.013-30.308zm18.75 0c21.799 2.606 40.888 14.152 53.463 30.878l-26.611 15.206c-6.89-7.81-16.25-13.385-26.852-15.479v-30.605zm219.467 5.353h14.908V380.43h-15.016c-10.25 0-18.588-8.342-18.588-18.592V244.529c0-10.308 8.386-18.697 18.696-18.697zM18.75 227.578H57.5v141.799H18.75V227.578zm229.31 39.344l26.206 16.015a48.11 48.11 0 0 0-.024 31.014l-26.314 15.79a78.105 78.105 0 0 1-6.504-31.262c0-11.22 2.38-21.892 6.637-31.557zm144.18.66a78.15 78.15 0 0 1 6.336 30.897 78.135 78.135 0 0 1-6.305 30.818l-26.48-15.447a48.14 48.14 0 0 0-.115-31.09l26.564-15.178zm-72.24 1.33c16.303.001 29.563 13.265 29.563 29.567a29.37 29.37 0 0 1-3.3 13.542c-.222.295-.432.6-.624.928-.22.376-.398.763-.56 1.155-5.23 8.36-14.512 13.937-25.079 13.937-10.569 0-19.854-5.58-25.084-13.943a9.478 9.478 0 0 0-.617-1.248 9.362 9.362 0 0 0-.572-.846 29.37 29.37 0 0 1-3.291-13.527c0-4.905 1.208-9.532 3.332-13.608.168-.229.342-.452.494-.7.26-.425.47-.868.654-1.315 5.229-8.364 14.515-13.942 25.084-13.942zm36.465 61.205l26.424 15.414c-12.574 16.763-31.685 28.335-53.514 30.944V345.87c10.728-2.119 20.18-7.8 27.09-15.754zm-72.858.084c6.905 7.91 16.33 13.559 27.018 15.67v30.606c-21.66-2.59-40.635-14.01-53.213-30.561l26.195-15.715zM18.75 388.127h77.957v38.254H18.75v-38.254zm113.75 209.1H230v23.75h-97.5v-23.75zm278.75 0h97.5v23.75h-97.5v-23.75z"/></svg>