<svg xmlns="http://www.w3.org/2000/svg" viewBox="0 0 798.58124 799.21875" fill="url(#a)"><linearGradient id="a" x1="0%" y1="37%" y2="63%"><stop offset="0%" stop-color="#3963c8"/><stop offset="100%" stop-color="#5f3aa1"/></linearGradient><path d="M569.264 388.166c-42.21 22.487-62.877 40.151-72.682 61.697-10.531 23.137-6.673 47.972-1.331 82.342 3.155 20.268-20.933 58.01-52.493 71.527-11.679 5-19.995 4.409-24.732-1.762-9.303-12.107-9.048-48.752-8.848-78.19.276-40.732.521-75.908-16.284-90.86-6.045-5.374-13.775-7.647-22.365-6.593-7.36.916-14.83 2.106-22.045 3.258-43.038 6.86-70.122 9.606-84.15-19.24-22.732-46.715 23.283-81.32 44.122-94.028 4.243-2.585 8.18-5.634 11.838-9.03 50.367-6.019 97.955-27.629 140.365-54.696 50.85 30.38 89.883 78.457 108.605 135.575M251.568 159.532l97.106 18.926-124.628 91.352c-23.503-10.854-44.653-26.46-63.162-43.805l90.684-66.473zm7.288-22.435l-68.874-93.946c20.62-8.474 42.751-15.141 65.44-18.108l95.277 129.952-91.843-17.898zm-90.683-84.092l56.809 77.487-136.658-26.639c17.205-13.585 45.604-33.98 79.85-50.848m-23.982 156.21c-27.713-29.87-48.025-61.805-59.688-82.254l135.78 26.472-76.092 55.782zm118.425 73.253c-4.138-.81-8.22-1.8-12.244-2.927l129.58-94.985L486.65 205.35c-38.867 30.625-133.456 94.864-224.032 77.117m422.18 6.663c-13.118 6.586-25.635 11.571-35.829 15.166l35.271-84.326 89.788-37.049c-1.304 10.059-3.788 20.029-7.83 29.59-15.86 37.536-53.02 62.39-81.4 76.619m-75.01-142.711c3.454-8.167 7.917-15.737 13.072-22.728l37.88 91.781-33.992 81.278c-4.775-10.131-10.399-23.439-15.169-38.556-9.577-30.268-17.654-74.24-1.791-111.775m139.985-83.118c4.649 9.991 10.039 22.874 14.644 37.435 5.048 15.98 9.682 35.785 10.605 56.443l-77.975 32.17 52.726-126.048zm-76.283 121.693l-33.272-80.634c16.19-15.141 34.975-26.536 50.975-34.561 13.629-6.84 26.594-11.952 36.995-15.575l-54.698 130.77zM107.027 415.078c8.712 16.518 16.951 32.127 25.511 39.288 6.064 5.067 14.504 7.662 23.434 10.41 22.884 7.035 25.542 10.486 23.347 19.536-2.692 11.126-9.19 24.415-15.468 37.258-12.093 24.742-23.513 48.098-12.688 64.976a111.347 111.347 0 0 1 17.716 62.122C99.143 585.785 70.75 486.463 96.724 396.19c3.444 5.902 7.063 12.76 10.303 18.888m679.54-321.932c-11.546-36.311-27.195-62.311-27.858-63.405-2.566-4.229-7.85-6.429-12.635-5.331-1.238.282-30.79 7.18-64.877 24.205-46.02 22.975-78.166 53.648-92.976 88.687-12.327 29.181-14.097 64.854-5.352 104.264-18.63-20.805-39.585-39.005-62.43-54.328-6.975-13.78-25.418-47.706-54.252-83.165-9.499-11.673-27.766 2.975-18.171 14.767 19.43 23.897 34.053 47.398 43.201 63.545l-106.65-20.79-101.325-138.21c9.839.137 19.711 1.088 29.536 3.015 31.146 6.097 61.911 21.96 91.458 47.14 11.575 9.87 26.61-8.092 15.185-17.823-32.639-27.815-67.005-45.415-102.147-52.297-53.643-10.498-116.21 3.282-180.95 39.868-48.253 27.268-80.522 57.22-81.868 58.478-4.318 4.034-5.005 11.361-1.39 16.072 4.731 9.708 22.663 44.728 52.512 82.43 17.595 22.23 36.151 41.254 55.345 56.888a278.292 278.292 0 0 0-15.897 14.38c-27.434 26.835-48.439 58.489-62.229 93.092-12.19 30.577-18.746 63.47-19.113 97.372-.603 55.438 15.46 108.907 46.464 154.633 30.289 44.664 72.63 78.957 122.444 99.167 13.941 5.643 22.756-16.04 8.805-21.698a247.19 247.19 0 0 1-50.644-27.859c2-11.092 6.639-51.013-19.879-92.34-3.712-5.782 7.387-28.485 14.01-42.045 6.84-13.976 13.898-28.425 17.197-42.028 3.502-14.455-.44-26.587-11.39-35.1-8.04-6.248-18.563-9.482-27.835-12.335-6.024-1.854-12.854-3.952-15.293-5.985-5.025-4.21-13.229-19.767-19.825-32.26-7.316-13.858-14.282-27.048-21.395-35.17 16.005-38.01 41.713-71.644 73.908-97.375 29.408 20.033 62.976 33.858 98.653 36.658-41.376 32.06-54.76 73-35.628 112.327 22.341 45.922 68.326 38.586 108.896 32.12 7.02-1.12 14.284-2.277 21.239-3.144 2.61-.326 3.396.385 3.922.847 8.884 7.904 8.62 45.645 8.429 73.207-.259 38.12-.501 74.13 13.697 92.618 7.244 9.425 17.444 14.244 29.402 14.244 7.165 0 14.951-1.726 23.116-5.229 35.312-15.12 72.02-60.633 66.42-96.643-4.893-31.484-8.131-52.283-.499-69.05 7.06-15.515 24.123-29.883 57.728-48.214 4.025 18.122 6.053 36.976 5.845 56.316-.719 66.021-27.109 127.81-74.304 173.981-52.746 51.6-126.878 77.084-200.209 69-14.941-1.62-17.521 21.63-2.561 23.28 80.267 8.837 161.424-19.065 219.141-75.538 51.674-50.552 80.561-118.19 81.346-190.474 1.044-95.839-48.132-180.745-122.99-229.658 15.47-11.028 26.99-20.565 33.382-26.102 27.292 19.581 51.501 43.702 71.642 71.805 48.351 67.477 67.528 149.736 54.005 231.639-27.927 169.068-188.185 283.912-357.282 255.975-81.907-13.527-153.639-58.132-201.99-125.61-48.355-67.473-67.532-149.74-54.005-231.638 2.428-14.737-20.658-18.605-23.097-3.815-14.552 88.074 6.078 176.536 58.063 249.098 51.995 72.55 129.141 120.522 217.214 135.072a338.72 338.72 0 0 0 55.171 4.541c69.219 0 136.556-21.49 193.936-62.61 72.571-51.993 120.546-129.125 135.089-217.198 10.657-64.537 2.409-129.284-23.211-187.83 11.825-3.488 31.947-10.258 53.986-21.263 46.009-22.976 78.16-53.649 92.965-88.687 14.82-35.05 14.405-79.48-1.195-128.484"/></svg>