<svg version="1" xmlns="http://www.w3.org/2000/svg" width="1773.333" height="1773.333" viewBox="0 0 1330.000000 1330.000000"><path d="M1164.8 131.2c-1.8 2.8-3.2 5.5-3 6 .1.4-.2.8-.7.8-.5 0-1.6 1.6-2.5 3.5-.9 1.9-2.1 3.5-2.6 3.5-.6 0-1 .9-1 1.9 0 1.1-.4 2.1-.8 2.3-.7.2-3 3.9-10.5 16.3-.7 1.1-1.5 2.2-1.8 2.5-.4.3-.9 1.5-1.3 2.7-.4 1.3-1.2 2.3-1.7 2.3s-.9.5-.9 1.1c0 .6-1.8 3.8-4 7-2.2 3.3-3.8 5.9-3.4 5.9.3 0-.2.7-1 1.6-.9.8-1.4 1.9-1.2 2.3.3.4-.4 1.4-1.5 2.1-1 .8-1.9 1.8-1.9 2.3 0 .5-.9 2.1-1.9 3.6-1.1 1.5-2.1 3.4-2.3 4.2-.2.8-1.1 2.1-2 3-1 .9-1.8 1.9-1.8 2.2 0 .4-1.6 3.1-3.5 6.1-1.9 3-3.5 6-3.5 6.6 0 .5-.4 1-.9 1s-1.4 1.3-2.1 3c-.7 1.6-1.6 3-2.1 3s-.8.3-.7.7c.2.8-1.4 3.5-9.3 15.9-2.1 3.3-3.9 6.5-3.9 7.1 0 .6-.4 1.3-.8 1.5-1.1.4-8.7 13.1-8.4 14 .1.5-.2.8-.6.8-.5 0-2.1 2.1-3.6 4.7-1.5 2.7-4 6.8-5.6 9.3-1.6 2.5-3.6 6-4.6 7.7-.9 1.8-1.9 3.3-2.3 3.3-.3 0-1.2 1.5-2 3.2-.8 1.8-1.7 3.5-2.1 3.8-.4.3-1.8 2.4-3.1 4.7-2.4 4.1-23.8 38.9-27.2 44.1-.9 1.5-2 3.5-2.3 4.4-.4 1-1 1.8-1.5 1.8s-.9.4-.9.9-1.8 3.8-3.9 7.2c-2.2 3.5-5.9 9.5-8.2 13.4-2.3 3.8-4.9 7.8-5.7 8.7-1.9 2.2-9 2 59.6 2.1 52.8 0 55.2.1 55.3 1.9.1 1 .2 2.1.3 2.5.1.5.6 2.8 1 5.3.5 2.5 1 5.4 1.2 6.5 1.5 7.7 1.7 50 1.7 262 0 217.4-.2 254.6-1.8 262.6-.2 1.4-.7 4.5-.9 7-.3 2.4-.5 4.4-.6 4.4-.2 0-.5 1.6-1.3 6s-1.3 6.4-3.2 13c-.9 3.3-1.7 6.8-1.8 7.7-.1 1-.5 1.8-.9 1.8s-.8.6-.8 1.4c0 3.5-15.6 39.8-17.9 41.6-.3.3-1.5 2.3-2.6 4.5s-2.2 4.2-2.5 4.5c-.3.3-2.1 2.9-3.9 5.8-1.9 3-3.9 5.9-4.5 6.5-.6.7-2.4 3-4 5.2-1.7 2.2-3.3 4.2-3.6 4.5-.3.3-1.6 1.9-2.7 3.6-1.2 1.6-6.3 7.2-11.5 12.4-5.1 5.2-9.2 9.8-9 10.2.1.4-.2.7-.7.6-.5-.2-3.7 2.2-7.1 5.2-3.5 3-8.3 7-10.9 8.8-2.5 1.8-4.8 3.7-5.2 4.3-.3.6-.8 1-1 .9-.8-.4-10.9 6.3-10.9 7.3 0 .6-.3.7-.7.4-.6-.7-7.3 2.9-8.4 4.6-.3.5-.9.8-1.3.8-1-.2-12.1 5.3-12.4 6.2-.2.4-.7.5-1.2.2s-1.5.2-2.4 1c-.8.9-1.7 1.5-1.8 1.5-1.1-.5-5.8 1.4-5.8 2.3 0 .6-.3.8-.6.4-.3-.3-3.6.6-7.2 2-8.7 3.3-15.2 5.2-15.2 4.6 0-.3-.7 0-1.5.7s-1.5 1-1.5.6c0-.3-1.2-.1-2.7.5-1.6.6-3.9 1.2-5.3 1.4-1.4.1-3.6.6-5 1s-3.8 1-5.5 1.2c-1.6.2-4.3.6-6 .8-4.9.8-8.6 1.2-17.5 2-9.8.9-488.2 1-501 .1-4.7-.3-9.6-.8-11-1.1-1.4-.3-4.5-.8-7-1.1-2.5-.3-5.2-.7-6-.9-.8-.2-3.1-.7-5-1-6-1-19.2-4.6-28-7.7-9.3-3.2-10.1-3.5-17.5-6.8-8.4-3.8-12-5.2-12.4-5-.2.1-.7-.3-1-.8-.3-.5-2.4-1.9-4.6-3.1-7.8-4.2-22-13.1-26.5-16.8-.8-.6-4.2-3.3-7.5-6-3.3-2.6-7.7-6.3-9.9-8.3-2.1-1.9-4.3-3.4-4.8-3.2-.5.1-.7-.2-.4-.6.7-1.2-2.8-4.4-3.9-3.5-.4.5-.5.3-.1-.4.3-.6.1-1.5-.6-2-.7-.4-3.1-2.8-5.3-5.3-2.2-2.5-4.4-4.4-5-4.2-.5.2-.7.1-.3-.3.3-.4-2.2-4.1-5.6-8.3-6.8-8.5-17.6-24.5-17.6-26.1 0-.6-.3-1.1-.7-1.1-.5 0-1.9-2.3-3.2-5-1.4-2.8-2.9-5-3.5-5-.5 0-.6-.3-.3-.6.3-.4.1-1.6-.5-2.8-.7-1.1-1.3-2.3-1.3-2.6-.1-.3-1.4-3-2.8-6-1.5-3-2.7-6.3-2.7-7.2 0-.9-.3-1.9-.8-2.1-.4-.3-1.8-3.8-3.2-7.9-1.4-4-2.7-7.5-3-7.8-.3-.3-.6-1.2-.7-2-.2-1.9-.7-4-2.8-11.5-.9-3.3-1.7-6.7-1.7-7.5 0-.8-.6-4.2-1.3-7.5-.8-3.3-1.7-8.7-2.1-12-1.2-9.4-1.6-512.6-.4-514 .5-.6.7-1.4.4-1.7-.5-.5.9-13.1 2.2-18.9.2-1.3.7-3.5.9-4.9.2-1.4.9-4.3 1.5-6.5s1.3-5.1 1.5-6.5c.4-2.7.6-3.5 6.5-19.7 2.2-6.1 4.7-12.4 5.5-13.9.8-1.5 1.2-3.1.9-3.6-.3-.4 0-.8.6-.8s.8-.5.5-1c-.3-.6-.3-1 .2-1 .9 0 3.9-6.1 3.5-7.3-.1-.4.2-.7.6-.7.5 0 1.7-1.8 2.8-4 1-2.2 2.2-4 2.5-4 .3 0 1.1-1.6 1.9-3.5.8-1.9 1.7-3.5 2.1-3.5.3 0 1.2-1.4 1.9-3 .7-1.7 1.6-3 1.9-3 .4 0 1.7-1.8 3-4 1.2-2.2 2.7-4.5 3.4-5.2.7-.7 3.2-3.8 5.7-6.8s6.3-7.5 8.5-9.9c2.2-2.4 3.9-4.8 3.7-5.3-.1-.5.1-.7.6-.4 1 .6 5.8-4.4 5.4-5.7-.1-.4.2-.6.6-.5.4.2 3.7-2.3 7.2-5.4 3.6-3.1 7.6-6.6 9-7.7 1.4-1.1 3.1-2.5 3.7-3.1 3.5-2.9 22.9-15.3 30.9-19.7 17.5-9.6 41.6-18.7 57.9-21.9 1.1-.2 3.1-.6 4.5-.9 2.7-.7 3.8-.8 12-2 3-.4 6.4-.9 7.5-1.1 6.7-1.4 45.8-1.6 308.6-1.7h290.6l5.5-8.6c3.1-4.7 5.6-8.9 5.7-9.4 0-.4 1.2-2 2.6-3.5 1.4-1.5 2.5-3 2.5-3.4 0-1.5.4-2.3 1.7-3.7 1.4-1.3 3.9-5.1 16.4-24.6 3.5-5.5 6.7-10.2 7.1-10.3.5-.2.8-.8.8-1.4 0-.6 1.1-2.5 2.3-4.2 1.3-1.7 2.9-4.1 3.5-5.3l1.2-2.1-321.8.2c-176.9.2-324.5.6-327.9.9-3.4.4-7.3.8-8.6 1.1-1.3.2-5.4.7-9 1.1-3.7.4-7 1.1-7.3 1.6-.3.5-.9.7-1.4.4-.8-.5-13.5 1.9-17 3.2-.8.3-2.5.7-3.6.8-4.6.7-28.5 8.2-34.9 11-1.6.7-5.4 2.3-8.2 3.4-9.5 3.7-24.6 11.4-37.3 18.9-13.8 8.2-31 20-31 21.4 0 .4-.6.8-1.4.8-.8 0-1.6.3-1.8.7-.1.5-3.7 3.6-7.8 6.9-10.5 8.6-19.6 17.5-19.2 18.8.2.6 0 .8-.3.4-.4-.4-2.1.7-3.7 2.5s-4.6 5-6.7 7.2c-3.3 3.6-7.8 8.9-15.6 18.7-.6.7-2.6 3.5-4.5 6.3-1.9 2.7-3.7 5.2-4 5.5-.5.5-5.7 8.3-7.5 11.2-5.1 8.4-8.9 15.4-8.7 16 .1.5-.1.8-.6.8-.4 0-1.6 2-2.7 4.5s-2.3 4.5-2.7 4.5c-.5 0-.8.8-.8 1.7 0 1-.7 2.7-1.5 3.7s-1.2 2.3-.9 2.7c.3.5.1.9-.4.9-1 0-4.8 8.9-4.4 10.2.1.5-.2.8-.6.8-.9 0-3.7 7.8-3.4 9.2.1.5-.2.8-.6.8-.4 0-1.4 2.1-2.1 4.7-.8 2.7-1.7 5.2-2 5.8-.3.5-.6 1.3-.7 1.7-.1.5-.2.9-.4 1-.1.2-.3 1-.5 1.8-1.3 6-3.1 11.6-4 12.2-.5.4-.7.8-.3.8.3 0 0 2.3-.7 5.2-.8 2.8-1.2 5.5-.9 5.9.2.4-.1 1.1-.7 1.4-.5.4-.8 1.3-.5 2.1.3.7.2 1.5-.2 1.8-.4.2-.9 1.9-1 3.8-.2 1.8-.7 5-1.3 7-.5 2-.9 4-.8 4.5.1.4 0 1-.1 1.3-.1.3-.3 1.8-.5 3.5-.2 1.6-.6 4.8-.9 7-1.7 11.9-2 45.6-2 272 0 221.7.3 255.5 1.8 264.5.3 1.4.7 4.8 1 7.6.3 2.9.7 6.2 1 7.5.3 1.3.8 3.5 1 4.9.5 2.9 3.6 17.7 4.2 20 .2.8.9 3.6 1.6 6.2.6 2.7 1.5 4.8 2 4.8s.7.4.4.9c-.3.5.4 3.5 1.5 6.7 1.1 3.3 2.2 6.3 2.3 6.9 1.4 5.2 2 6.5 2.9 6.5.6 0 .8.3.4.6-1.9 2 19.4 45.5 28 57 1.3 1.7 2.3 3.6 2.3 4.2 0 .6.4 1.2.8 1.4.5.1 2.8 3.2 5.2 6.8 2.4 3.6 4.7 6.7 5 7 .4.3 2.3 2.6 4.3 5.2 8.9 11.8 21.1 25 22.2 24 .5-.4.5-.2.2.4-.8 1.3 4.8 6.6 5.9 5.6.4-.4.4-.2.1.4-.4.7 0 1.7.8 2.4s1.5.9 1.5.6c0-.4 1.4.9 3.1 2.9 1.7 1.9 3.5 3.2 4 2.9.5-.3.8-.2.7.3-.2.5 1.5 2.5 3.7 4.4 2.2 1.8 4.2 3.7 4.3 4.2.2.4.8.5 1.3.1.5-.3.9-.1.9.5s2.6 2.9 5.7 5.2c3.2 2.4 6 4.5 6.3 4.9.9 1 22.5 14.8 25.3 16.1 1.5.7 2.7 1.6 2.7 2.1 0 .4.9.8 1.9.8 1.1 0 2.2.4 2.5.8.9 1.6 26.5 13.7 37.3 17.8 20 7.6 49.9 15.4 64.8 16.9 1.7.2 4.4.6 6.1.9 1.7.3 6.2.9 10 1.3 9.4 1.1 513.9 1 523.7 0 4.3-.5 8.8-1.1 10-1.3 1.2-.3 4-.7 6.2-.9 2.2-.3 5.1-.7 6.5-1 1.4-.3 4.1-.8 6-1.1 11.2-1.8 40.5-10.2 52.5-15.1 13.5-5.4 30.3-13.4 41-19.6 10-5.7 29.9-18.9 35.9-23.9 16.8-13.9 22.3-18.9 31.1-28 11.9-12.3 14.3-15.1 21.6-24.3 26.9-34 45.1-70.8 56.4-114 1.9-7.2 3.6-14.4 3.9-16 2.8-17.2 3.7-23.9 5.1-40 .8-9.4.9-491.4 0-503.6-.3-5.2-.8-10.9-1-12.5-.2-1.6-.6-5.6-1-8.9l-.7-6.1 64.1.1c53.8 0 64-.2 63.6-1.4-.3-.7-3.6-6.3-7.4-12.5-3.7-6.1-13-21.2-20.6-33.6-7.6-12.4-15.7-25.4-18-29-2.3-3.6-5.7-9.1-7.6-12.3-1.9-3.2-4.1-6.9-4.9-8.2-.8-1.3-4.5-7.2-8.1-13.2-11.7-19.1-36-58.5-42.4-68.8-3.4-5.5-9.4-15.2-13.2-21.5-3.9-6.3-10-16.5-13.8-22.5-3.7-6.1-10.6-17.2-15.2-24.8-4.6-7.5-8.6-13.7-8.8-13.7-.2 0-1.9 2.3-3.7 5.2z"/><path d="M439.5 324.7c-6.6 1.5-20.5 7.1-20.5 8.3 0 .5-.8 1.1-1.8 1.5-2.6.8-13.5 11.4-15.8 15.2-1 1.8-2.2 3.3-2.6 3.3-.4 0-.8.7-.8 1.5s-.5 1.5-1.2 1.5c-.6 0-.9.3-.5.6.3.4-.2 2.3-1.2 4.3-5 9.7-6.6 24.5-4.1 36.8 1.3 6 5.9 17.6 7.2 18.1.4.2.8.9.8 1.5 0 3.1 12 15.4 19.5 20.1 6.3 4 12 6.7 14.9 7 1.2.1 2.6.5 3.1.8 3.6 2.1 22.8 2.6 27.5.8.3-.1.8-.2 1.2-.1.3 0 3.1-.8 6.1-1.8 10.6-3.7 21.1-10.7 27.2-18.2 1.9-2.4 3.9-4.9 4.4-5.5 1.7-2 8-15.8 8.5-18.7.3-1.5.9-3.9 1.2-5.5.8-3.5.8-18 .1-21.2-.3-1.4-.8-3.4-1.1-4.5-3.2-13.9-12.9-27.8-25.2-36-3.2-2.2-6.1-4-6.4-4-.3-.1-1.9-.9-3.7-1.8-8.4-4.5-26.2-6.4-36.8-4zm-31.7 161.8c-.4 0-.4 415.5.1 415.6 3.4.5 90.6.2 91.4-.3 1-.6 1.8-414.7.7-414.9-.4-.1-91-.5-92.2-.4zm373.9 20.1c-.1.1-7.6.4-16.7.8-9.1.3-19 .8-22 1.1-11.1.9-26.6 2.6-29.5 3.2-1.1.2-3.8.6-6 .8-7.4.9-33.9 5.6-45 8.1-12.4 2.8-12.3 2.7-20.6 4.8-3.3.9-6.3 1.6-6.5 1.6-.7 0-.4 375 .4 375.1.4 0 20.5.1 44.7.2l44 .2-.1-156.8V589l2.5-.1c1.5 0 3.5-.2 4.6-.4 1.1-.3 3.8-.7 6-.9 2.2-.3 5-.8 6.2-1 1.2-.3 4.6-.7 7.5-1 2.9-.3 8.2-.8 11.8-1.2 9-.9 35.2-1 42.5-.1 13.4 1.7 30.3 8.1 34.5 13.2.7.8 1.6 1.2 2.1.9.5-.3.9-.1.9.4 0 .6 1.5 2.5 3.3 4.4 4.8 5 6.4 7.3 9.1 12.6 5.6 10.8 9.8 25.5 11.1 39.2.4 3.6.9 7.6 1.1 9 1.2 6.7 1.5 34.9 1.7 132.4l.2 105.9 44.2.1c28.7.1 44.4-.3 44.6-.9.2-.6.3-54.3.2-119.5-.2-103.8-.5-125.5-1.9-137-1.3-9.8-2.8-18.7-4.2-25-.3-1.4-1-4.5-1.4-7-1.9-9.9-9.1-29.8-11.4-31.2-.6-.4-.7-.8-.3-.8.9 0-4.4-10.3-5.5-10.8-.5-.2-.8-.9-.8-1.5 0-2.7-15.8-21.9-17.3-21-.6.3-.7.2-.4-.4.5-.8-1.6-3.4-3.5-4.1-.4-.2-2.2-1.7-4-3.4-7.4-7-26.7-17.8-39.8-22.3-.3-.1-1.2-.4-2-.8-5.7-2.2-20.2-5.9-20.8-5.2-.3.3-1.1 0-1.8-.6-.8-.6-2-.9-2.8-.6-.8.3-1.7.3-2 0-.3-.4-1.6-.7-2.8-.9-1.3-.1-3.5-.5-4.9-.7-6.8-1.3-48-3.1-49.2-2.1z"/></svg>