<svg xmlns="http://www.w3.org/2000/svg" viewBox="0 0 640.00122 640" height="640" width="640.001"><defs><clipPath id="a"><path d="M0 512h512.001V0H0v512z"/></clipPath></defs><g clip-path="url(#a)" transform="matrix(1.25 0 0 -1.25 0 640)"><path d="M440 102.582V84.586c0-4.258-1.695-8.348-4.734-11.324a256.915 256.915 0 0 0-36.106-29.508c-2.465-1.668-5.68-1.758-8.203-.188C351.773 67.926 305.531 82 256 82c-49.078 0-94.926-13.82-133.879-37.77a9.498 9.498 0 0 0-10.336.243 256.981 256.981 0 0 0-35.312 29.05C72.359 77.57 70 83.07 70 88.844v15.91C70 125.324 53.324 142 32.754 142a9.598 9.598 0 0 0-8.691 5.516C8.629 180.453 0 217.219 0 256c0 141.285 114.457 255.84 255.707 256C397.051 512.16 512.34 396.719 512 255.371c-.094-38.617-8.742-75.219-24.145-108.019a9.32 9.32 0 0 0-8.437-5.352C457.648 142 440 124.352 440 102.582" fill="#e2e1ff"/><path d="M296 242c0-22.09-17.91-40-40-40s-40 17.91-40 40 17.91 40 40 40 40-17.91 40-40" fill="#29429b"/><path d="M350 492c0-11.047-8.953-20-20-20-6.59 0-12.418 3.203-16.063 8.117C283.059 472.836 260 445.07 260 412h-20c0 43.371 30.84 79.676 71.742 88.137C314.859 507.121 321.855 512 330 512c11.047 0 20-8.953 20-20" fill="#432584"/><path d="M333 507c5.523 0 10-4.477 10-10s-4.477-10-10-10-10 4.477-10 10 4.477 10 10 10" fill="#5f3aa1"/><path d="M487.988 147.652c-13.074-27.945-31.043-53.133-52.809-74.469l-33.89 33.887c-.356.355-.696.723-1.035 1.086V62c0-6.39-.606-12.637-1.75-18.692C357.77 15.961 308.75 0 256 0c-53.617 0-103.375 16.492-144.5 44.668A100.524 100.524 0 0 0 110 62v44.36L76.82 73.182c-21.766 21.336-39.734 46.524-52.809 74.47l23.06 23.058c9.011 9.007 21.25 12.812 32.991 11.425C81.2 203.211 98.644 219.95 120 219.95c16.207 0 30.148-9.64 36.433-23.496C171.923 206.297 190.293 212 210 212h90.258c23.101 0 44.371-7.84 61.3-20.996 4.801 16.714 20.188 28.945 38.442 28.945 21.308 0 38.718-16.66 39.925-37.668 9.118-.746 18.028-4.594 25.004-11.57l23.06-23.059zM350 236.668H160c-55.227 0-100 44.77-100 100v10c0 55.226 44.773 100 100 100h190c55.226 0 100-44.774 100-100v-10c0-55.23-44.774-100-100-100" fill="#4256ba"/><path d="M360 179.95c0 4.007.598 7.874 1.691 11.522C344.863 204.347 323.824 212 301 212h-51c-55.23 0-100-44.77-100-100V62c0-15.516 3.535-30.203 9.84-43.305C189.531 6.648 221.984 0 256 0c53.117 0 102.457 16.18 143.355 43.875A100.34 100.34 0 0 1 401 62v50c0 9.746-1.402 19.168-4 28.074-20.688 1.535-37 18.797-37 39.875m104.93-9.238a39.84 39.84 0 0 1-25.004 11.578c.047-.774.074-1.55.074-2.34 0-17.379-11.09-32.168-26.578-37.684a39.768 39.768 0 0 1 9.082-13.98l32.859-32.863a255.966 255.966 0 0 1 32.625 52.23l-23.058 23.06zM120 139.95c-14.684 0-27.516 7.922-34.473 19.715a39.777 39.777 0 0 1-17.242-10.168l-29.308-29.309A257.439 257.439 0 0 1 76.82 73.183l33.891 33.887c8.996 8.996 12.809 21.211 11.441 32.941a39.377 39.377 0 0 0-2.152-.062m79 96.72c-55.23 0-100 44.768-100 100v10c0 55.225 44.77 100 100 100h151c55.23 0 100-44.775 100-100v-10c0-55.232-44.77-100-100-100H199z" fill="#5075d7"/><path d="M342 316.668H170c-24.852 0-45 20.145-45 45 0 24.852 20.148 45 45 45h172c24.852 0 45-20.148 45-45 0-24.855-20.148-45-45-45" fill="#432584"/><path d="M342 316.668H195c-24.852 0-45 20.145-45 45 0 24.852 20.148 45 45 45h147c24.852 0 45-20.148 45-45 0-24.855-20.148-45-45-45" fill="#5f3aa1"/><path d="M220.113 338.004a8.001 8.001 0 0 0-5.675 2.35l-9.963 9.964-9.964-9.963a8.025 8.025 0 0 0-11.35 0 8.024 8.024 0 0 0 0 11.35l9.964 9.963-9.963 9.963a8.024 8.024 0 0 0 0 11.35 8.025 8.025 0 0 0 11.349 0l9.964-9.963 9.963 9.963a8.026 8.026 0 0 0 11.35-11.35l-9.963-9.963 9.963-9.963a8.026 8.026 0 0 0-5.675-13.701m107.19 0a8.003 8.003 0 0 0-5.675 2.35l-9.962 9.964-9.964-9.963a8.026 8.026 0 0 0-11.35 11.35l9.963 9.963-9.963 9.963a8.026 8.026 0 0 0 11.35 11.35l9.964-9.963 9.962 9.963a8.027 8.027 0 0 0 11.35-11.35l-9.962-9.963 9.963-9.963a8.026 8.026 0 0 0-5.675-13.701" fill="#bca7ea"/><path d="M400 199.95c-11.047 0-20-8.954-20-20 0-11.044 8.953-20 20-20s20 8.956 20 20c0 11.046-8.953 20-20 20m-260-20c0-11.044-8.953-20-20-20s-20 8.956-20 20c0 11.046 8.953 20 20 20s20-8.954 20-20" fill="#8babf2"/><path d="M407.5 198.484a20.05 20.05 0 0 1-8.895-7.105c-.753-1.075.028-2.52 1.336-2.512a9.125 9.125 0 0 0 2.239-.27c3.629-.91 6.367-4.097 6.699-7.824a8.917 8.917 0 0 0-8.879-9.738h-.035c-1.32.004-2.117-1.434-1.36-2.516a20.013 20.013 0 0 1 8.895-7.1c7.324 2.967 12.5 10.14 12.5 18.53s-5.172 15.566-12.5 18.535M140 179.95c0-8.39-5.172-15.563-12.5-18.53a20.105 20.105 0 0 0-8.895 7.1c-.753 1.082.04 2.52 1.364 2.516H120a8.923 8.923 0 0 1 8.883 9.738c-.336 3.727-3.074 6.914-6.703 7.824a8.906 8.906 0 0 1-2.235.27c-1.312-.008-2.09 1.437-1.34 2.512a20.082 20.082 0 0 0 8.899 7.105c7.324-2.969 12.496-10.14 12.496-18.535" fill="#d4ddf4"/><path d="M290 172c0-5.523 4.477-10 10-10s10 4.477 10 10-4.477 10-10 10-10-4.477-10-10m40 10c5.523 0 10-4.477 10-10s-4.477-10-10-10-10 4.477-10 10 4.477 10 10 10" fill="#29429b"/><path d="M270 182c5.523 0 10-4.477 10-10s-4.477-10-10-10-10 4.477-10 10 4.477 10 10 10" fill="#bca7ea"/></g></svg>