<svg xmlns="http://www.w3.org/2000/svg" viewBox="0 0 639.38 641.20752" height="641.208" width="639.38"><defs><clipPath id="a"><path d="M0 512.966h511.504V0H0v512.966z"/></clipPath><clipPath id="b"><path d="M0 256.719C0 115.47 114.504.966 255.752.966S511.504 115.47 511.504 256.719c0 141.247-114.504 255.752-255.752 255.752S0 397.966 0 256.719"/></clipPath><clipPath id="c"><path d="M0 512.966h511.504V0H0v512.966z"/></clipPath></defs><g clip-path="url(#a)" transform="matrix(1.25 0 0 -1.25 0 641.207)"><path d="M511.504 256.719C511.504 115.469 397 .966 255.753.966 114.503.966 0 115.47 0 256.719 0 397.967 114.504 512.47 255.753 512.47c141.247 0 255.75-114.504 255.75-255.752" fill="#e2e1ff"/></g><g clip-path="url(#b)" transform="matrix(1.25 0 0 -1.25 0 641.207)"><path d="M72.65 15.457v482.052c0 8.534 6.918 15.457 15.457 15.457H377.03c8.535 0 15.457-6.923 15.457-15.457V15.457C392.487 6.918 385.565 0 377.03 0H88.107C79.568 0 72.65 6.918 72.65 15.457" fill="#5f3aa1"/><path d="M72.65 497.51V15.456C72.65 6.918 79.568 0 88.107 0h38.178v512.966H88.107c-8.539 0-15.457-6.923-15.457-15.457" fill="#432584"/><path d="M392.487 59.754H72.65v393.455h319.837V59.754z" fill="#5075d7"/><path d="M126.286 453.208H72.651V59.753h53.635v393.455z" fill="#4256ba"/><path d="M114.175 235.991v88.4c0 5.18 4.198 9.38 9.383 9.38H341.58c5.18 0 9.384-4.2 9.384-9.38v-88.4c0-5.18-4.204-9.379-9.384-9.379H123.56c-5.18 0-9.384 4.198-9.384 9.38" fill="#bca7ea"/><path d="M211.982 484.348a7.991 7.991 0 0 1 7.99-7.993h34.1a7.992 7.992 0 0 1 7.993 7.993 7.99 7.99 0 0 1-7.993 7.993h-34.1a7.989 7.989 0 0 1-7.99-7.993M269.117 287.081c0-1.762.934-3.524 3.107-3.936l11.194-2.8-7.565-10.782c-.416-.517-.727-1.55-.727-2.485 0-2.9 2.801-4.873 5.39-4.873 1.04 0 2.384.21 3.42 1.762l7.05 10.676 7.15-10.78c.828-1.347 1.866-1.658 3.111-1.658 2.072 0 5.597 1.762 5.597 4.663 0 1.14-.518 2.073-1.14 2.8l-7.258 10.155 11.505 3.318c2.073.416 3.006 2.28 3.006 4.457 0 2.384-2.072 4.975-4.869 4.975-.31 0-12.855-4.146-12.855-4.146l.518 11.508c-.1 2.901-2.28 4.247-4.765 4.247-2.488 0-4.667-1.346-4.767-4.247l.516-11.609s-12.543 4.251-12.955 4.251c-2.8 0-4.667-2.906-4.663-5.496M206.72 287.081c0-1.762.935-3.524 3.113-3.936l11.193-2.8-7.564-10.782c-.417-.517-.728-1.55-.728-2.485 0-2.9 2.797-4.873 5.39-4.873 1.035 0 2.385.21 3.419 1.762l7.048 10.676 7.152-10.78c.829-1.347 1.867-1.658 3.108-1.658 2.073 0 5.6 1.762 5.6 4.663 0 1.14-.521 2.073-1.14 2.8l-7.257 10.155 11.505 3.318c2.073.416 3.007 2.28 3.007 4.457 0 2.384-2.074 4.975-4.87 4.975-.311 0-12.854-4.146-12.854-4.146l.517 11.508c-.101 2.901-2.28 4.247-4.768 4.247-2.485 0-4.663-1.346-4.765-4.247l.518-11.609s-12.543 4.251-12.956 4.251c-2.8 0-4.667-2.906-4.667-5.496M144.329 287.081c0-1.762.934-3.524 3.112-3.936l11.193-2.8-7.565-10.782c-.416-.517-.727-1.55-.727-2.485 0-2.9 2.797-4.873 5.39-4.873 1.035 0 2.38.21 3.419 1.762l7.048 10.676 7.152-10.78c.829-1.347 1.863-1.658 3.108-1.658 2.073 0 5.597 1.762 5.597 4.663 0 1.14-.518 2.073-1.14 2.8l-7.254 10.155 11.505 3.318c2.073.416 3.006 2.28 3.006 4.457 0 2.384-2.073 4.975-4.873 4.975-.311 0-12.85-4.146-12.85-4.146l.517 11.508c-.105 2.901-2.283 4.247-4.768 4.247-2.49 0-4.663-1.346-4.768-4.247l.517-11.609s-12.54 4.251-12.955 4.251c-2.797 0-4.664-2.906-4.664-5.496" fill="#432584"/></g><g clip-path="url(#c)" transform="matrix(1.25 0 0 -1.25 0 641.207)"><path d="M371.924 198.923c54.664 0 98.977-44.313 98.977-98.977 0-54.668-44.313-98.98-98.977-98.98s-98.98 44.312-98.98 98.98c0 54.664 44.316 98.977 98.98 98.977" fill="#5f3aa1"/><path d="M272.943 99.946c0-54.664 44.316-98.98 98.98-98.98a99.07 99.07 0 0 1 25.926 3.437c-42.09 11.395-73.054 49.848-73.054 95.543 0 45.691 30.964 84.145 73.054 95.54a99.048 99.048 0 0 1-25.926 3.437c-54.664 0-98.98-44.313-98.98-98.977" fill="#432584"/><path d="M412.307 109.122v24.09c0 22.265-18.117 40.383-40.383 40.383-22.27 0-40.383-18.114-40.383-40.383v-24.09h15.453v24.09c0 13.746 11.184 24.933 24.93 24.933s24.93-11.187 24.93-24.933v-24.09h15.453z" fill="#d4ddf4"/><path d="M326.822 51.259v58.707a4.056 4.056 0 0 0 4.055 4.055h82.09a4.051 4.051 0 0 0 4.054-4.055V51.259a4.054 4.054 0 0 0-4.054-4.055h-82.09a4.054 4.054 0 0 0-4.055 4.055" fill="#5075d7"/><path d="M403.916 71.65v13.976a7.726 7.726 0 1 1-15.453 0V71.65a7.726 7.726 0 1 1 15.453 0M379.65 71.65v13.976a7.726 7.726 0 1 1-15.453 0V71.65a7.726 7.726 0 1 1 15.453 0M355.385 71.65v13.976a7.726 7.726 0 1 1-15.453 0V71.65a7.726 7.726 0 1 1 15.453 0" fill="#29429b"/><path d="M72.65 468.666v28.844c0 8.534 6.918 15.456 15.457 15.456H377.03c8.535 0 15.457-6.922 15.457-15.456v-28.844c0-8.54-6.922-15.457-15.457-15.457H88.107c-8.539 0-15.457 6.918-15.457 15.457" fill="#5f3aa1"/><path d="M72.65 497.51V358.922c0-8.539 6.918-15.457 15.457-15.457h38.178v169.5H88.107c-8.539 0-15.457-6.923-15.457-15.457" fill="#432584"/><path d="M126.286 453.208H72.651V334.965h53.635v118.243z" fill="#4256ba"/></g></svg>