<svg xmlns="http://www.w3.org/2000/svg" viewBox="0 0 693.93628 642.85748" height="642.857" width="693.936"><defs><clipPath id="a"><path d="M0 514.286h555.149V0H0v514.286z"/></clipPath></defs><g clip-path="url(#a)" transform="matrix(1.25 0 0 -1.25 0 642.857)"><path d="M555.15 256c0-141.385-114.616-256-256-256C157.762 0 43.147 114.615 43.147 256S157.763 512 299.15 512c141.385 0 256-114.615 256-256" fill="#e2e1ff"/><path d="M121.874 242.741H86.297a9.117 9.117 0 0 0-9.116 9.116 9.114 9.114 0 0 0 9.116 9.116h35.578a9.114 9.114 0 0 0 9.116-9.116c0-5.032-4.082-9.116-9.117-9.116" fill="#bca7ea"/><path d="M109.72 194.34H38.896a9.114 9.114 0 0 0-9.116 9.117c0 5.03 4.08 9.116 9.116 9.116h70.826c5.035 0 9.116-4.085 9.116-9.116a9.115 9.115 0 0 0-9.116-9.116" fill="#9eb4e5"/><path d="M135.852 145.935H9.116C4.08 145.935 0 150.02 0 155.05a9.115 9.115 0 0 0 9.117 9.116h126.736a9.114 9.114 0 0 0 9.114-9.116c.002-5.031-4.08-9.116-9.114-9.116" fill="#728ecc"/><path d="M163.2 97.535H12.761a9.114 9.114 0 0 0-9.116 9.115c0 5.032 4.081 9.117 9.116 9.117H163.2c5.035 0 9.115-4.085 9.115-9.117a9.116 9.116 0 0 0-9.115-9.115" fill="#bca7ea"/><path d="M194.801 49.134H46.794c-5.034 0-9.117 4.079-9.117 9.11a9.117 9.117 0 0 0 9.117 9.118h148.007c5.033 0 9.114-4.081 9.114-9.117.001-5.032-4.08-9.111-9.114-9.111" fill="#9eb4e5"/><path d="M304.076.728H86.297a9.115 9.115 0 0 0-9.117 9.117c0 5.031 4.081 9.114 9.117 9.114h217.781a9.116 9.116 0 0 0-.002-18.231" fill="#bca7ea"/><path d="M288.401 494.835h34.129V361.709h-34.129v133.126zM360.854 338.255l6.265-4.294 2.208-1.51 11.345-7.773 61.37 94.244-11.08 7.59-2.47 1.695-6.264 4.294-61.373-94.246z" fill="#4256ba"/><path d="M509.041 202.599c-.647-27.865-6.771-54.33-17.334-78.36C459.037 49.916 383.958-1.18 297.759.789 183.68 3.403 93.336 97.998 95.949 212.068c2.613 114.07 97.21 204.424 211.28 201.812a207.154 207.154 0 0 0 39.303-4.654c94.821-20.58 164.818-106.026 162.509-206.627" fill="#4256ba"/><path d="M363.202 485.115H247.736c-8.022 0-14.586 6.562-14.586 14.586 0 8.02 6.564 14.585 14.586 14.585h115.466c8.021 0 14.585-6.563 14.585-14.585 0-8.024-6.564-14.586-14.585-14.586M457.847 403.004l-56.101 39.041c-5.485 3.818-6.85 11.43-3.033 16.918 3.819 5.485 11.435 6.852 16.919 3.032l56.102-39.038c5.487-3.82 6.852-11.435 3.03-16.919-3.816-5.489-11.43-6.853-16.917-3.034M509.041 202.599c-.647-27.865-6.771-54.33-17.334-78.36-31.369-34.92-76.889-56.881-127.524-56.881-94.645 0-171.374 76.729-171.374 171.388 0 88.69 67.372 161.642 153.727 170.478C441.353 388.646 511.35 303.2 509.041 202.599" fill="#5075d7"/><path d="M255.237 56.975C172.19 83.105 126.052 171.6 152.177 254.648c24.924 79.176 108.503 127.929 193.266 104.335 3-.836 4.694-4.02 3.738-6.985l-43.261-134.18c-1.391-4.317 2.745-8.364 7.032-6.884l133.283 46.109c2.927 1.012 6.134-.586 7.046-3.546 9.04-29.456 9.574-61.858-.376-93.473-26.13-83.038-114.628-129.18-197.668-103.05" fill="#432584"/><path d="M452.897 160.023c-13.017-41.384-41.53-73.605-77.142-92.277-3.83-.254-7.684-.389-11.573-.389-94.644 0-171.375 76.733-171.375 171.39 0 41.835 14.989 80.172 39.892 109.924 33.338 16.518 72.913 21.403 112.743 10.307 3.002-.826 4.69-4.012 3.742-6.977l-43.27-134.183c-1.384-4.313 2.747-8.36 7.043-6.88l133.28 46.103c2.918 1.02 6.129-.585 7.04-3.538 9.042-29.462 9.578-61.87-.38-93.48" fill="#5f3aa1"/></g></svg>