<svg xmlns="http://www.w3.org/2000/svg" viewBox="0 0 402.45624 388.04001"><defs><clipPath id="a"><path d="M0 310.432h321.965V0H0v310.432z"/></clipPath><clipPath id="b"><path d="M113.895 20.252h57.203V12.95h-57.203v7.302z"/></clipPath><clipPath id="c"><path d="M81.179 211.542a5.752 5.752 0 0 1 11.503 0H81.179z"/></clipPath><clipPath id="d"><path d="M0 310.432h321.965V0H0v310.432z"/></clipPath><clipPath id="e"><path d="M292.405 103.361a7.526 7.526 0 0 1 15.051 0h-15.051z"/></clipPath><clipPath id="f"><path d="M0 310.432h321.965V0H0v310.432z"/></clipPath><clipPath id="g"><path d="M222.262 288.514a6.921 6.921 0 0 1 13.842 0h-13.842z"/></clipPath><clipPath id="h"><path d="M0 310.432h321.965V0H0v310.432z"/></clipPath><clipPath id="i"><path d="M190.305 157.713h3.768v-38.697h-3.768v38.697z"/></clipPath><clipPath id="j"><path d="M190.305 157.713h3.768v-38.697h-3.768v38.697z"/></clipPath><clipPath id="k"><path d="M171.809 139.623h3.767v-20.607h-3.767v20.607z"/></clipPath><clipPath id="l"><path d="M171.809 139.623h3.767v-20.607h-3.767v20.607z"/></clipPath><clipPath id="m"><path d="M227.299 167.114h3.768v-48.098h-3.768v48.098z"/></clipPath><clipPath id="n"><path d="M227.299 167.114h3.768v-48.098h-3.768v48.098z"/></clipPath><clipPath id="o"><path d="M208.802 153.712h3.768v-34.696h-3.768v34.696z"/></clipPath><clipPath id="p"><path d="M208.802 153.712h3.768v-34.696h-3.768v34.696z"/></clipPath><clipPath id="q"><path d="M246.771 177.191h3.768v-58.175h-3.768v58.175z"/></clipPath><clipPath id="r"><path d="M246.771 177.191h3.768v-58.175h-3.768v58.175z"/></clipPath><clipPath id="s"><path d="M36.678 41.353h72.438V4.883H36.678v36.47z"/></clipPath><clipPath id="t"><path d="M22.555 39.629h63.377v-5.28H22.555v5.28z"/></clipPath><clipPath id="u"><path d="M0 310.432h321.965V0H0v310.432z"/></clipPath><clipPath id="v"><path d="M0 310.432h321.965V0H0v310.432z"/></clipPath><clipPath id="w"><path d="M0 310.432h321.965V0H0v310.432z"/></clipPath><clipPath id="x"><path d="M0 310.432h321.965V0H0v310.432z"/></clipPath></defs><g clip-path="url(#a)" transform="matrix(1.25 0 0 -1.25 0 388.04)"><g clip-path="url(#b)" opacity=".63"><path d="M171.098 16.6c0-2.016-12.806-3.65-28.602-3.65-15.795 0-28.6 1.634-28.6 3.65 0 2.018 12.805 3.652 28.6 3.652 15.796 0 28.602-1.634 28.602-3.651" fill="#d1d3d4"/></g><path d="M194.322 298.606c0-6.413-5.2-11.611-11.612-11.611s-11.612 5.198-11.612 11.61c0 6.413 5.2 11.612 11.612 11.612 6.413 0 11.612-5.198 11.612-11.611" fill="#ff6066"/><path d="M190.052 300.164c-.007-4.531-7.343-8.204-7.343-8.204s-7.317 3.673-7.343 8.204c-.03 5.783 7.545 4.273 7.612 1.676-.067 2.597 7.082 3.742 7.074-1.676" fill="#fff"/><path d="M268.342 10.638C268.342 4.763 263.58 0 257.704 0s-10.637 4.763-10.637 10.638 4.762 10.638 10.637 10.638c5.875 0 10.638-4.763 10.638-10.638" fill="#ff6066"/><path d="M264.432 12.065c-.007-4.15-6.728-7.516-6.728-7.516s-6.704 3.366-6.726 7.516c-.029 5.299 6.912 3.916 6.973 1.536-.06 2.38 6.488 3.428 6.481-1.537" fill="#fff"/><path d="M318.123 163.063a7.079 7.079 0 1 0-14.157 0 7.079 7.079 0 1 0 14.157 0" fill="#ff6066"/><path d="M315.52 164.012c-.004-2.762-4.477-5.001-4.477-5.001s-4.461 2.239-4.475 5c-.02 3.527 4.599 2.606 4.64 1.023-.041 1.583 4.317 2.282 4.312-1.022" fill="#fff"/><path d="M94.649 211.542a7.72 7.72 0 1 0-15.436.002 7.72 7.72 0 0 0 15.436-.002" fill="#ffe340"/><g><path d="M92.682 211.542a5.751 5.751 0 0 0-11.503 0h11.503z" fill="#2d2d2c"/></g></g><g clip-path="url(#c)" transform="matrix(1.25 0 0 -1.25 0 388.04)"><path d="M90.813 205.737c0-1.488-1.738-2.694-3.883-2.694-2.143 0-3.882 1.206-3.882 2.694s1.739 2.694 3.882 2.694c2.145 0 3.883-1.206 3.883-2.694" fill="#ff6066"/></g><g clip-path="url(#d)" transform="matrix(1.25 0 0 -1.25 0 388.04)"><path d="M82.204 212.876a.265.265 0 0 0-.064.523l1.716.43-1.607.987a.266.266 0 0 0 .278.453l2.146-1.318a.267.267 0 0 0 .124-.266.268.268 0 0 0-.198-.218l-2.331-.582a.234.234 0 0 0-.064-.008M91.658 212.876a.234.234 0 0 0-.064.008l-2.331.583a.268.268 0 0 0-.198.217.264.264 0 0 0 .124.266l2.146 1.32a.265.265 0 1 0 .278-.454l-1.607-.987 1.715-.43a.264.264 0 0 0 .194-.32.265.265 0 0 0-.257-.203" fill="#2d2d2c"/><path d="M310.03 103.361c0-5.578-4.52-10.1-10.1-10.1-5.577 0-10.098 4.522-10.098 10.1 0 5.578 4.52 10.1 10.099 10.1 5.579 0 10.1-4.522 10.1-10.1" fill="#ffe340"/><path d="M307.457 103.361a7.526 7.526 0 1 0-15.051 0h15.05z" fill="#2d2d2c"/></g><g clip-path="url(#e)" transform="matrix(1.25 0 0 -1.25 0 388.04)"><path d="M305.011 95.766c0-1.947-2.274-3.525-5.08-3.525s-5.08 1.578-5.08 3.525c0 1.946 2.274 3.524 5.08 3.524s5.08-1.578 5.08-3.524" fill="#ff6066"/></g><g clip-path="url(#f)" transform="matrix(1.25 0 0 -1.25 0 388.04)"><path d="M293.746 105.107a.347.347 0 0 0-.084.685l2.246.561-2.103 1.292a.348.348 0 0 0 .364.592l2.808-1.725a.348.348 0 0 0-.098-.633l-3.048-.762a.353.353 0 0 0-.085-.01M306.117 105.107a.353.353 0 0 0-.085.01l-3.048.762a.347.347 0 1 0-.097.633l2.807 1.725a.348.348 0 1 0 .364-.592l-2.103-1.292 2.246-.56a.348.348 0 0 0-.084-.686" fill="#2d2d2c"/><path d="M238.471 288.514a9.288 9.288 0 1 0-18.576 0 9.288 9.288 0 0 0 18.576 0" fill="#ffe340"/><path d="M236.104 288.514a6.92 6.92 0 0 0-6.921-6.92 6.92 6.92 0 0 0-6.921 6.92h13.842z" fill="#2d2d2c"/></g><g clip-path="url(#g)" transform="matrix(1.25 0 0 -1.25 0 388.04)"><path d="M233.855 281.529c0-1.791-2.092-3.242-4.672-3.242-2.58 0-4.672 1.45-4.672 3.242 0 1.79 2.092 3.242 4.672 3.242 2.58 0 4.672-1.451 4.672-3.242" fill="#ff6066"/></g><g clip-path="url(#h)" transform="matrix(1.25 0 0 -1.25 0 388.04)"><path d="M223.496 290.12a.32.32 0 0 0-.077.63l2.064.516-1.933 1.188a.32.32 0 1 0 .335.545l2.582-1.587a.32.32 0 0 0-.09-.582l-2.804-.701a.337.337 0 0 0-.077-.01M234.872 290.12a.346.346 0 0 0-.078.009l-2.803.7a.321.321 0 0 0-.24.263.317.317 0 0 0 .149.32l2.582 1.587a.32.32 0 1 0 .335-.545l-1.933-1.188 2.065-.516a.32.32 0 0 0-.077-.63" fill="#2d2d2c"/><path d="M170.025 267.485h89.307c10.89 0 19.72-8.83 19.72-19.721V56.239c0-10.891-8.83-19.72-19.72-19.72h-89.307c-10.892 0-19.721 8.829-19.721 19.72v191.526c0 10.89 8.829 19.72 19.72 19.72" fill="#3a4c9f"/><path d="M155.68 242.145h117.997V61.86H155.68v180.285z" fill="#fff"/><path d="M196.159 253.674c0 .89.722 1.611 1.61 1.611h33.819a1.61 1.61 0 0 0 0-3.222H197.77c-.89 0-1.611.721-1.611 1.611M214.678 43a7.115 7.115 0 1 0 0 14.23 7.115 7.115 0 0 0 0-14.23" fill="#273b82"/><path d="M273.677 72.079H155.68v126.074h117.997V72.079z" fill="#b8d5ff"/><path d="M244.12 221.356h-58.185v4.445h58.185v-4.445zM219.484 214.587h-33.549v3.22h33.549v-3.22zM180.319 220.993a9.22 9.22 0 0 0-9.221-9.22 9.22 9.22 0 0 0-9.22 9.22c0 5.093 4.128 9.221 9.22 9.221a9.22 9.22 0 0 0 9.22-9.22M265.99 225.344a1.488 1.488 0 1 1 0-2.975 1.488 1.488 0 0 1 0 2.975m-4.887 0a1.488 1.488 0 1 1 0-2.977 1.488 1.488 0 0 1 0 2.977m-3.398-1.488a1.488 1.488 0 1 0-2.976-.002 1.488 1.488 0 0 0 2.976.002" fill="#d1d2d4"/><path d="M180.017 119.016h-8.208v20.607h8.208v-20.607z" fill="#ff6066"/><path d="M198.514 157.713h-8.209v-38.698h8.209v38.698z" fill="#3a4c9f"/><path d="M217.011 153.712h-8.209v-34.696h8.209v34.696z" fill="#ff6066"/><path d="M235.508 167.114h-8.209v-48.098h8.209v48.098z" fill="#3a4c9f"/><g clip-path="url(#i)" opacity=".15"><g clip-path="url(#j)" opacity=".26"><path d="M190.305 119.016h3.768v38.698h-3.768v-38.698z"/></g></g><g clip-path="url(#k)" opacity=".15"><g clip-path="url(#l)" opacity=".26"><path d="M171.809 119.016h3.767v20.607h-3.767v-20.607z"/></g></g><g clip-path="url(#m)" opacity=".62"><g clip-path="url(#n)" opacity=".26"><path d="M227.299 119.016h3.768v48.098h-3.768v-48.098z"/></g></g><g clip-path="url(#o)" opacity=".15"><g clip-path="url(#p)" opacity=".26"><path d="M208.802 119.016h3.768v34.696h-3.768v-34.696z"/></g></g><path d="M254.979 177.191h-8.208v-58.176h8.208v58.176z" fill="#ff6066"/><g clip-path="url(#q)" opacity=".15"><g clip-path="url(#r)" opacity=".26"><path d="M246.771 119.016h3.768v58.176h-3.768v-58.176z"/></g></g><path d="M260.654 112.352h-95.96v78.226h1.12v-77.105h94.84v-1.121zM249.957 180.703l-2.65 7.048 7.138-1.338-4.488-5.71z" fill="#fff"/><path d="M171.375 96.473h-6.889v6.889h6.889v-6.889z" fill="#3a4c9f"/><path d="M171.375 84.402h-6.889v6.889h6.889v-6.889z" fill="#ff6066"/><path d="M208.993 84.402h-35.719v3.915h35.719v-3.915zM208.993 96.473h-35.719v3.914h35.719v-3.914z" fill="#9cc9ff"/><path d="M222.793 96.473h-6.889v6.889h6.889v-6.889z" fill="#3a4c9f"/><path d="M222.793 84.402h-6.889v6.889h6.889v-6.889z" fill="#ff6066"/><path d="M260.411 84.402h-35.719v3.915h35.719v-3.915zM260.411 96.473h-35.719v3.914h35.719v-3.914z" fill="#9cc9ff"/><path d="M175.576 155.466l18.834 13.716 18.16-8.308 18.497 16.317 19.17 7.914" fill="none" stroke="#fff" stroke-width="1.055" stroke-linecap="round" stroke-linejoin="round" stroke-miterlimit="10"/><path d="M310.82 235.275a8.1 8.1 0 1 0-16.2.001 8.1 8.1 0 0 0 16.2-.001" fill="#568bff"/><path d="M300.609 232.559v3.738a.662.662 0 0 1-.662.662h-.848a.662.662 0 0 1-.662-.662v-3.738c0-.366.297-.662.662-.662h.848c.366 0 .662.296.662.662m3.7 7.417c.964-.233.202-2.458-.48-2.823l2.295-.015a.885.885 0 0 0 .859-1.07l-.567-2.678a1.89 1.89 0 0 0-1.862-1.496l-3.228.025.04 5.062c1.7.413 1.993 3.224 2.944 2.995" fill="#fff"/><path d="M321.965 45.438c0-8.562-6.94-15.502-15.502-15.502-8.56 0-15.5 6.94-15.5 15.502 0 8.562 6.94 15.501 15.5 15.501 8.562 0 15.502-6.939 15.502-15.5" fill="#568bff"/><path d="M311.025 52.234a4.561 4.561 0 1 0-9.122 0 4.561 4.561 0 0 0 9.122 0M309.683 34.081h-6.438a2.332 2.332 0 0 0-2.333 2.333v5.004a5.552 5.552 0 1 0 11.104 0v-5.004a2.333 2.333 0 0 0-2.333-2.333" fill="#fff"/><path d="M134.364 281.593a7.917 7.917 0 1 0-15.834 0 7.917 7.917 0 0 0 15.834 0" fill="#568bff"/><path d="M128.777 285.063a2.33 2.33 0 1 0-4.659.001 2.33 2.33 0 0 0 4.659 0M128.092 275.793h-3.289a1.19 1.19 0 0 0-1.19 1.191v2.556a2.834 2.834 0 1 0 5.67 0v-2.556a1.19 1.19 0 0 0-1.19-1.19" fill="#fff"/><path d="M284.587 297c0-7.418-6.014-13.432-13.432-13.432s-13.43 6.014-13.43 13.432 6.012 13.432 13.43 13.432 13.432-6.014 13.432-13.432" fill="#568bff"/><path d="M275.108 302.889a3.952 3.952 0 1 0-7.904 0 3.952 3.952 0 0 0 7.904 0M273.946 287.16h-5.58a2.022 2.022 0 0 0-2.021 2.02v4.337a4.812 4.812 0 0 0 9.622 0v-4.336a2.021 2.021 0 0 0-2.021-2.021" fill="#fff"/><path d="M196.25 10.13a7.917 7.917 0 1 0-15.833.001 7.917 7.917 0 0 0 15.833 0" fill="#568bff"/><path d="M190.664 13.602a2.33 2.33 0 1 0-4.66 0 2.33 2.33 0 0 0 4.66 0M189.978 4.331h-3.288a1.19 1.19 0 0 0-1.191 1.191v2.556a2.835 2.835 0 0 0 5.67 0V5.522a1.19 1.19 0 0 0-1.191-1.19" fill="#fff"/><g clip-path="url(#s)" opacity=".63"><path d="M36.678 19.703S36.941 8.8 42.46 8.8c5.521 0 15.705 6.593 17.246 5.964 1.541-.63 14.533-7.418 15.935-7.176 1.401.243 1.073 2.181 2.712 2.424 1.638.243 20.044-10.156 23.69-1.998 2.207 4.937-8.238 6.75-8.238 6.75s12.082 13.633 15.216 24.298c3.135 10.666-72.343-19.358-72.343-19.358" fill="#d1d3d4"/></g><path d="M74.986 15.85s12.96-.56 22.744 8.205c7.829 7.013 13.623 18.737 15.277 23.866 1.652 5.13 2.362 15.368-.114 17.078-2.474 1.71-47.288-40.944-47.288-40.944l9.38-8.204z" fill="#171587"/><path d="M17.011 43.573s5.4 6.11 19.977 6.091c11.351-.016 48.593-10.219 48.593-10.219L69.384 22.128 17.011 43.573z" fill="#171587"/><path d="M84.765 18.888l-7.559 3.24-2.582-4.86 3.422-2.835h5.774l.945 4.455z" fill="#ffe1bd"/><path d="M78.856 14.063s2.534-.316 4.425 1.934c1.889 2.252.809 3.196 2.024 3.332 1.215.134 6.48-2.295 11.743-1.755 5.265.54 6.884 1.343 7.155-.611.269-1.954-.422-9.212-6.766-8.942-6.345.27-18.581 6.042-18.581 6.042" fill="#08085e"/><path d="M78.046 14.433s2.534-.315 4.424 1.935c1.89 2.25.81 3.196 2.025 3.33 1.215.135 6.48-2.294 11.743-1.754 5.264.54 6.884 1.343 7.155-.612.27-1.953-.422-9.211-6.766-8.941-6.345.27-18.58 6.042-18.58 6.042" fill="#492107"/><path d="M36.988 41.068c8.25-5.027 42.317-16.46 42.317-16.46s1.27-8.766-6.095-11.38c0 0-41.08 11.592-50.8 16.05-9.718 4.458-6.749 12.255-5.399 14.295 1.35 2.041 9.72 3.747 19.977-2.505" fill="#201d93"/><path d="M68.026 101.6a4.068 4.068 0 0 0 1.789-1.852c.437-.847.589-1.865.426-2.85-.452-2.571-1.021-6.584-1.638-10.82-.994-6.797-2.127-14.19-3.146-17.145-.223-.675 2.84-4.196 1.518-5.84-.03-.051-.402-13.755-.445-13.801-.018-.01-1.381-1.321-1.398-1.331-.524-.337-2.48-1.14-3.492-.704-1.111.449-26.16-7.668-25.954-7.431C46.2 51.914 54.968 58.7 55.63 59.87c1.297 2.3.43 25.785.956 30.474.246 2.26 1.094 5.163 2.286 7.06 1.196 1.907 2.955 3.074 4.15 4.06 1.886 1.543 2.875 1.259 5.004.135" fill="#c46600"/><path d="M94.134 64.967c-1.333-3.458-1.65-7.231-.845-10.857 1.6-7.197-.22-7.68-.22-7.68s-8.656-6.008-17.106-6.906c-7.566-.806-13.95-1.294-13.813 5.125l2.427-1.935.03 1.126c.274 14.427-2.735 15.16-3.476 31.314-.765 16.57-4.796 18.769-1.165 23.473 5.37 6.956 19.61 10.498 30.892 7.83 8.474-1.995 11.266-4.244 11.197-10.515-.023-2.084-.359-4.616-.91-7.721-1.402-7.893-4.742-17.366-7.01-23.254" fill="#db7700"/><path d="M85.41 115.907c-3.217-2.144-5.291-3.883-9.446-3.883-1.568 0-.961.627-2.427.964.723-.382-.736-1.037-.174-1.158a2.454 2.454 0 0 0 1.95-2.265l.256-4.765 1.862-3.889 3.243 2.1 4.725 3.062-.468 7.392s-.78 1.163.479 2.442" fill="#ffe1bd"/><path d="M77.722 107.8l.317-4.434-.609-2.455-1.86 3.889-.257 4.766a2.456 2.456 0 0 1-1.95 2.264c-1.209.259-.629 1.147-2.347 2.968a3.023 3.023 0 0 0-.294.363c.211-.125.491-1.795 4.352-2.226 2.853-.32 2.443-2.272 2.648-5.135" fill="#e8c5a0"/><path d="M85.341 109.519s1.143-.636 2.278-2.344c0 0-1.559-.698-2.918-1.528-1.24-.758-7.206-4.971-7.206-4.971l-1.754 3.603s6.228 4.296 9.6 5.24" fill="#fff"/><path d="M75.742 104.278s-2.087-.714-2.73-2.272c0 0-1.065 2.044.298 5.685 0 0 1.145 1.083 2.025 1.47l.407-4.883z" fill="#fff"/><path d="M84.765 45.088l-40.325.35 24.01-8.955 16.315 8.605z" fill="#b3c5ce"/><path d="M68.362 35.533l17.282 1.613.13 1.423-17.568-1.653.156-1.383z" fill="#e8f1f8"/><path d="M71.65 48.4l-3.28-1.804s-3.235 2.237-6.45-.195c-3.214-2.433.664-9.306 3.046-8.617 2.383.688 9.333 5.838 9.333 5.838l-2.65 4.777z" fill="#ffe1bd"/><g clip-path="url(#t)" opacity=".24"><path d="M26.568 35.958l-4.013-1.197 44.058-.412 19.319 5.28-41.035-.434-18.33-3.237z" fill="#474747"/></g><path d="M87.443 50.3C81.3 48.37 74.906 38.61 74.906 38.61l-.563.904s-3.172 1.423-4.038 4.349c-.34 1.148-.3 4.537-.3 4.537s15.336 7.666 20.05 12.856c2.285 2.524 2.493 4.634 4.68 5.69-.068.166-.13.329-.194.503-2.393 6.824-2.282 16.589-3.267 21.539-.475 2.389-.417 4.837.19 7.103a13.57 13.57 0 0 0 2.023 4.322c1.477 2.079 3.5 3.673 6.102 3.068a4.942 4.942 0 0 0 2.487-1.44 5.159 5.159 0 0 0 1.366-2.827c.976-7.174 4.065-26.812 3.92-31.215a8.061 8.061 0 0 0-.347-2.12 6.594 6.594 0 0 0-.196-.69c-2.238-6.243-13.234-12.958-19.376-14.89" fill="#c46600"/><path d="M68.362 35.533l-41.85 3.83a2.96 2.96 0 0 0-2.672 2.615l-3.306 29.15a2.485 2.485 0 0 0 2.696 2.754l39.195-3.587a2.487 2.487 0 0 0 2.244-2.195l3.693-32.567z" fill="#d4dedf"/><path d="M66.037 128.046c-.117.009-.052-.654-.98-1.73-.93-1.074-1.003-3.244-.975-3.173.027.07-1.795 5.046-1.274 6.264.523 1.219 1.598 1.528 1.872 1.13.273-.397 1.357-2.491 1.357-2.491" fill="#632f00"/><path d="M86.99 119.762c.137-1.395.184-2.646.08-3.553a3.047 3.047 0 0 0-.062-.385c-.022-.121-.042-.252-.085-.385-1.015-4.02-6.103-9.69-9.676-10.15a9.462 9.462 0 0 0-1.383-.025c-4.976.227-7.884 4.306-9.57 8.645-.057.158-.114.304-.17.45-1.486 4.034-1.964 8.178-2.093 9.629-.031.342-.037.537-.037.537-.294 1.586-.036 2.82.113 3.332.049.177.084.267.084.267s.064.017.169.048c1.38.426 10.765 3.299 10.969 3.317.204.018 9.657-.664 9.657-.664s1.529-6.344 2.005-11.063" fill="#ffe1bd"/><path d="M88.322 119.983c.135-1.395.182-2.646.079-3.553a2.725 2.725 0 0 0-.063-.385c-.647-4.017-5.563-10.262-11.091-10.755a11.565 11.565 0 0 0-1.235-.11c-5.984-.244-8.064 4.267-9.717 8.73l-.17.45s2.08-3.32 3.118-3.423c1.037-.102-.25 1.198 2.567 2.298 1.797.701 4.515.637 5.784.48 1.17-.156 3.274-.755 4.019-.862.186-.016.326-.014.43.04.993.51 2.998 3.87 3.347 6.011.143.835 2.152 1.215 2.932 1.08" fill="#8c4200"/><path d="M59.961 133.01s.307-7.211 12.154-4.326c11.85 2.884 10.94-8.894 10.94-8.894s1.644 3.948 2.134 2.427c.49-1.52-.04-5.434-.04-5.434s3.251-.352 3.351 1.248c.06.956.166 14.605-2.18 17.845-2.345 3.24-5.145 3.094-5.145 3.094s-2.965 2.499-9.95.454c-6.988-2.044-10.667.535-10.649.334.018-.201-1.11-2.224-.615-6.748" fill="#8c4200"/><g><path d="M80.876 119.054c-.392-1.55-1.202-2.316-3.317-2.574-2.999-.364-3.534.473-3.925 1.495-.393 1.02-.5 1.879-.456 2.119.123.65.754.76 2.647 1.085 1.893.324 4.421.729 4.778.456.357-.273.614-1.231.274-2.581m-10.992-1.551c-.127-1.086-.917-2.103-2.577-2.312-1.546-.195-2.223.376-2.986 1.78-.664 1.224-.652 2.216-.375 2.569.28.353 1.107.37 3.021.525 1.915.154 2.553.205 2.834-.396.103-.22.211-1.08.083-2.166m13.03 4.835c-.119.49-2.272.399-3.799.206-1.525-.191-5.594-.703-6.45-1.205-.856-.501-.822-.84-1.27-.89-.436-.05-.452.28-1.405.554-.954.274-3.303-.021-4.829-.214-1.526-.192-2.98-.487-2.975-.993.005-.505.23-1.377.534-1.507.303-.131.303-.105 1.404-2.065.615-1.095 1.61-1.7 3.591-1.32 2.518.484 2.776 2.563 3.012 3.436.234.873.42 1.008.8 1.057.39.05.64-.032 1.082-.82.444-.788.704-2.63 3.261-2.646 3.35-.022 4.841.866 5.381 2.448.73 2.145.587 2.147.85 2.348.12.093.855.353.878.635a3.33 3.33 0 0 1-.065.976" fill="#282c3b"/></g><g><path d="M55.252 23.76l7.657 2.999 2.427-4.94-3.51-2.725-5.77.183-.805 4.483z" fill="#ffe1bd"/></g><g><path d="M61.004 18.749s-2.543-.234-4.36 2.075c-1.818 2.309-.708 3.219-1.918 3.393-1.21.173-6.549-2.088-11.793-1.382-5.245.706-6.839 1.56-7.17-.384-.332-1.944.13-9.221 6.478-9.151 6.35.068 18.763 5.449 18.763 5.449" fill="#08085e"/></g><g><path d="M61.826 19.094s-2.543-.235-4.36 2.074c-1.818 2.31-.708 3.22-1.918 3.393-1.21.174-6.55-2.088-11.793-1.381-5.245.706-6.84 1.56-7.17-.384-.332-1.944.129-9.221 6.478-9.152 6.35.069 18.763 5.45 18.763 5.45" fill="#492107"/></g><g><path d="M60.288 29.334s19.355 15.74 27.454 24.109c8.099 8.37 13.228 16.543 22.677 13.266 9.448-3.277-2.43-20.849-11.068-27.721-8.64-6.872-29.98-22.027-29.98-22.027s-11.447 4.059-9.083 12.373" fill="#2d24a3"/></g><g><path d="M45.905 54.713a3.406 3.406 0 1 0-6.813 0 3.406 3.406 0 1 0 6.813 0" fill="#b4bcc5"/></g><g><path d="M82.9 154.596H5.51c-3.03 0-5.51 2.48-5.51 5.51V175.8c0 3.031 2.48 5.511 5.51 5.511H82.9c3.03 0 5.51-2.48 5.51-5.51v-15.695c0-3.03-2.48-5.51-5.51-5.51" fill="#2672e7"/></g></g><text style="-inkscape-font-specification:OpenSans-Bold" transform="matrix(1.25 0 0 1.25 27.77 182.752)" font-weight="700" font-size="9.198" font-family="Open Sans" fill="#fff"><tspan y="0" x="0 5.2522292 10.504458 15.756688">1000</tspan></text><g clip-path="url(#u)" transform="matrix(1.25 0 0 -1.25 0 388.04)"><path d="M20.62 167.954a7.627 7.627 0 1 0-15.255 0 7.627 7.627 0 0 0 15.255 0" fill="#fff"/><path d="M16.82 167.954c0-1.936-1.713-3.505-3.827-3.505s-3.828 1.57-3.828 3.505c0 1.935 1.714 3.504 3.828 3.504s3.828-1.569 3.828-3.504" fill="#3a4c9f"/><path d="M10.435 165.63l-.27-1.478 1.841.576-1.57.902z" fill="#3a4c9f"/><path d="M64.06 167.954a7.628 7.628 0 1 0-15.256 0 7.628 7.628 0 0 0 15.255 0" fill="#fff"/><path d="M61.04 169.279c-.004-2.844-4.608-5.15-4.608-5.15s-4.594 2.306-4.61 5.15c-.019 3.63 4.736 2.682 4.778 1.052-.042 1.63 4.445 2.349 4.44-1.052" fill="#ff6066"/></g><text style="-inkscape-font-specification:OpenSans-Bold" transform="matrix(1.25 0 0 1.25 82.068 182.752)" font-weight="700" font-size="9.198" font-family="Open Sans" fill="#fff"><tspan y="0" x="0 5.2522292 10.504458">980</tspan></text><g clip-path="url(#v)" transform="matrix(1.25 0 0 -1.25 0 388.04)"><path d="M62.61 158.004l5.202-11.006 4.888 10.298-10.09.708zM127.183 235.275h-77.39c-3.03 0-5.51 2.48-5.51 5.51v15.695c0 3.03 2.48 5.51 5.51 5.51h77.39c3.031 0 5.511-2.48 5.511-5.51v-15.694c0-3.031-2.48-5.511-5.51-5.511" fill="#2672e7"/><path d="M64.903 248.632a7.627 7.627 0 1 0-15.255.001 7.627 7.627 0 0 0 15.255 0" fill="#fff"/><path d="M55.288 246.113v3.443a.662.662 0 0 1-.662.662h-.721a.662.662 0 0 1-.662-.662v-3.443c0-.366.296-.662.662-.662h.72c.367 0 .663.296.663.662m3.485 6.946c.908-.22.19-2.314-.452-2.658l2.16-.014a.834.834 0 0 0 .81-1.007l-.534-2.523a1.78 1.78 0 0 0-1.754-1.41l-3.04.025.038 4.767c1.6.389 1.877 3.037 2.772 2.82" fill="#3a4c9f"/></g><text style="-inkscape-font-specification:OpenSans-Bold" transform="matrix(1.25 0 0 1.25 83.125 81.905)" font-weight="700" font-size="9.198" font-family="Open Sans" fill="#fff"><tspan y="0" x="0 5.2522292 10.504458 15.756688">1000</tspan></text><g clip-path="url(#w)" transform="matrix(1.25 0 0 -1.25 0 388.04)"><path d="M64.904 248.632a7.628 7.628 0 1 0-15.257.003 7.628 7.628 0 0 0 15.257-.003" fill="#fff"/><path d="M61.104 248.633c0-1.936-1.714-3.505-3.828-3.505s-3.828 1.569-3.828 3.505c0 1.935 1.714 3.504 3.828 3.504s3.828-1.57 3.828-3.504" fill="#3a4c9f"/><path d="M54.718 246.31l-.27-1.479 1.84.576-1.57.902z" fill="#3a4c9f"/><path d="M108.342 248.632a7.628 7.628 0 1 0-15.255.001 7.628 7.628 0 0 0 15.255 0" fill="#fff"/><path d="M105.324 249.958c-.005-2.844-4.61-5.15-4.61-5.15s-4.592 2.306-4.608 5.15c-.02 3.63 4.736 2.683 4.778 1.052-.042 1.63 4.445 2.349 4.44-1.052" fill="#ff6066"/></g><text style="-inkscape-font-specification:OpenSans-Bold" transform="matrix(1.25 0 0 1.25 137.422 81.905)" font-weight="700" font-size="9.198" font-family="Open Sans" fill="#fff"><tspan y="0" x="0 5.2522292 10.504458">980</tspan></text><g clip-path="url(#x)" transform="matrix(1.25 0 0 -1.25 0 388.04)"><path d="M112.495 237.73l8.55-8.663v11.004l-8.55-2.342z" fill="#2672e7"/><path d="M144.523 29.715s.827-3.768.766-6.77c-.381-2.081.003-2.693.003-2.693l7.898.674s-3.491 1.714-3.246 9.86c.245 8.147-5.421-1.071-5.421-1.071" fill="#fc9"/><path d="M145.19 22.315s3.434-1.273 6.827-.313c3.99-1.843 6.8-2.569 10.43-3.028 3.63-.46 2.986-3.445-3.215-3.032-6.202.413-10.528.13-11.906-.009-1.38-.138-3.584-.322-3.676.643-.092.965.42 6.058 1.54 5.74" fill="#201d93"/><path d="M120.28 29.715s.827-3.768.766-6.77c-.381-2.081.003-2.693.003-2.693l7.898.674s-3.491 1.714-3.246 9.86c.245 8.147-5.421-1.071-5.421-1.071" fill="#fc9"/><path d="M120.947 22.315s3.434-1.273 6.827-.313c3.99-1.843 6.8-2.569 10.43-3.028 3.629-.46 2.986-3.445-3.216-3.032-6.201.413-10.527.13-11.905-.009-1.38-.138-3.584-.322-3.676.643-.092.965.42 6.058 1.54 5.74" fill="#2d24a3"/><path d="M147.584 143.335s5.084-53.245 5.386-60.177c.301-6.931.301-9.343 0-13.562-.302-4.219 2.3-39.77 2.3-39.77s-11.83-3.088-14.845-.342c0 0 .492 38.761-1.015 45.392-1.506 6.631-7.398 40.23-7.398 40.23l6.793 34.358 8.78-6.129z" fill="#201d93"/><path d="M120.119 217.426s.496 9.268 4.317 11.754c3.82 2.487 14.04 3.391 17.18-.904 3.142-4.295 6.495-22.944-8.84-25.346l-7.947-36.678s-20.683 2.115-22.266 13.191c-1.582 11.076 7.836 16.23 7.836 16.23s-4.52 9.307.227 15.87c4.746 6.561 9.493 5.883 9.493 5.883" fill="#3838d6"/><path d="M149.968 185.539s18.7-2.678 23.76-2.438c3.962-.24 9.675 23.308 10.248 24.749 3.16 2.154 4.403 3.82 4.356 5.444-.046 1.62-4.082 2.993-4.469 2.177.668 2.155.816 2.829.997 3.568.375 1.53-.703 2.695-2.247-3.077-1.527-5.697-1.379-4.757-1.75-6.762-2.496-5.198-8.932-17.327-9.37-19.162-8.342.213-22.49 3.742-22.49 3.742l.965-8.241z" fill="#fc9"/><path d="M121.927 79.24c1.205 9.946-1.002 50.257-.914 58.795.09 8.538 24.121 4.195 24.121 4.195s-7.535-50.03-8.439-57.263c-.905-7.234-2.11-9.343-2.562-16.276-.452-6.93-3.768-39.48-3.768-39.48s-13.226-2.222-14.225.28c-2.09 12.808 5.787 49.75 5.787 49.75" fill="#2d24a3"/><path d="M140.312 198.59l10.85-2.918s-1.205-9.138 0-11.85h-7.535s-1.308-3.918-2.01-5.727c-.702-1.808 5.627-32.2 6.531-37.927 0 0-15.974 2.967-28.632-2.76 0 0 1.205 12.056 5.425 20.494 4.22 8.439-12.689 28.105-12.689 28.105s5.162 15.823 14.196 16.802c7.216.783 7.173-2.42 13.864-4.22" fill="#fff"/><path d="M139.708 225.05s3.315-8.98 1.206-13.2c-2.11-4.219-7.233-3.616-7.233-3.616v-9.644s-.523-.5-1.432-.553c-1.582-.09-5.802 2.662-5.802 2.662v22.303l13.261 2.047zM109.26 186.593s-16.04-18.218-15.136-20.478c.904-2.26 18.761-12.206 20.344-13.563 1.582-1.355 6.446-6.787 6.613-6.064.167.724 3.106 2.448 3.332 4.256.226 1.808-1.356 3.391-1.356 3.391l-6.78.904s-12.207 10.172-12.66 11.528c-.452 1.356 13.796 15.371 13.796 15.371l-8.154 4.655z" fill="#fc9"/><path d="M107.78 187.439s9.302 13.122 15.069 12.658c5.767-.465 5.425-8.887 0-14.769-5.424-5.882-7.233-8.137-7.233-8.137s-6.631 3.315-7.836 10.247" fill="#fff"/><path d="M140.13 226.366s-2.154-10.296-7.127-13.008c-4.974-2.713-1.217-9.382-5.957-14.36-2.536-2.665-7.354.297-7.354.297l4.744 25.754 15.694 1.317z" fill="#3838d6"/></g></svg>