<svg xmlns="http://www.w3.org/2000/svg" viewBox="0 0 249832.02 86249.001" fill="#fff"><path d="M24389 160h49770l-3999 6152H24389c-5013 0-9572 2053-12879 5360-3307 3306-5359 7865-5359 12878v37309c0 5013 2053 9572 5359 12878 3307 3307 7866 5360 12879 5360h37309c5011 0 9570-2053 12878-5360 3307-3306 5360-7865 5360-12878V24550c0-1230-124-2433-359-3596h-9263L83220 0l12905 20954H85822c176 1174 267 2375 267 3596v37309c0 6710-2744 12809-7162 17228-4420 4419-10518 7162-17228 7162H24390c-6711 0-12809-2744-17228-7162C2743 74668 0 68569 0 61859V24550c0-6710 2744-12808 7162-17228C11581 2903 17679 160 24390 160z"/><path d="M22419 28841h7466v33246h-7466V28841zm18189 3266c1383-394 3180-770 5392-1124 2212-357 4661-534 7346-534 2529 0 4642 346 6340 1037s3051 1658 4058 2903c1007 1244 1719 2745 2133 4502 415 1757 622 3684 622 5777v17419h-7169V45794c0-1658-109-3071-326-4235-217-1166-573-2114-1067-2844-494-731-1166-1264-2014-1600-849-335-1886-503-3111-503-908 0-1857 59-2844 177-987 119-1719 217-2192 296v25003h-7169V32108zm65196 24826c1896 0 3282-231 4147-681s1304-1234 1304-2340c0-1028-465-1877-1393-2548-928-672-2461-1413-4592-2192-1297-476-2503-983-3585-1512s-2028-1160-2813-1866c-787-706-1417-1574-1866-2577-450-1003-681-2242-681-3703 0-2844 1046-5086 3139-6725 2094-1639 4938-2458 8532-2458 1817 0 3559 172 5213 503 1655 332 2903 661 3732 978l-1303 5806c-790-356-1801-686-3022-978-1220-292-2646-444-4265-444-1462 0-2647 247-3555 741s-1363 1254-1363 2281c0 514 89 967 267 1363 177 394 488 764 918 1096 431 331 1007 671 1719 1007 711 335 1590 670 2607 1036 1701 613 3141 1254 4325 1866 1185 613 2163 1304 2933 2074s1333 1649 1689 2636 533 2173 533 3555c0 2962-1096 5204-3288 6725-2192 1520-5322 2281-9390 2281-2726 0-4918-227-6578-681-1658-454-2824-820-3495-1096l1244-5983c1067 435 2344 853 3822 1244 1476 391 3169 593 5066 593zm20203-34009l7169-1185v9361h11020v5983h-11020v12620c0 2479 399 4270 1185 5333 785 1062 2133 1599 4029 1599 1304 0 2464-143 3467-415 1003-273 1807-534 2399-770l1186 5687c-830 356-1920 725-3259 1097-1339 370-2923 562-4740 562-2212 0-4059-296-5541-889-1481-592-2660-1455-3524-2577-865-1121-1482-2489-1837-4088-356-1599-534-3426-534-5480V22923zm37266 34127c2212 0 3891-118 5036-356v-7939c-394-118-972-241-1719-356-745-113-1579-177-2489-177-789 0-1593 64-2399 177-806 115-1545 340-2192 652s-1175 761-1570 1333c-396 573-593 1293-593 2163 0 1698 537 2877 1599 3524 1063 648 2509 978 4325 978zm-592-26720c2369 0 4364 295 5983 888s2913 1422 3881 2489c967 1067 1663 2365 2074 3881 410 1515 621 3197 621 5006v18782c-1106 237-2779 528-5007 860-2226 331-4749 503-7553 503-1857 0-3560-182-5095-534-1537-351-2855-928-3940-1719-1087-789-1939-1821-2548-3080-608-1259-919-2824-919-4681 0-1778 350-3282 1037-4502s1633-2226 2815-2992c1180-767 2557-1324 4117-1659s3190-503 4889-503c790 0 1619 50 2487 148 869 99 1798 267 2785 503v-1185c0-829-98-1619-296-2369-197-751-543-1413-1037-1985-494-573-1149-1022-1955-1332-806-312-1827-475-3051-475-1659 0-3184 123-4563 356-1378 233-2507 514-3377 830l-889-5806c909-317 2237-637 3970-948 1734-312 3595-474 5570-474zm43131 16174c0-3041-602-5451-1807-7228-1205-1776-3110-2666-5718-2666-1185 0-2304 182-3347 533-1042 352-1886 751-2518 1186v17833c514 118 1180 231 1985 326 806 94 1787 148 2933 148 2647 0 4724-902 6221-2695 1496-1793 2251-4276 2251-7436zm7346 118c0 2489-370 4735-1096 6725s-1781 3707-3139 5125c-1359 1417-3017 2512-4948 3259-1931 746-4128 1126-6576 1126-2370 0-4636-182-6784-533-2148-352-3940-751-5362-1186V17296l7169-1185v16056c830-435 1847-830 3052-1185 1205-356 2537-534 3999-534 2172 0 4117 385 5836 1155s3150 1866 4296 3288c1144 1422 2028 3135 2636 5125 607 1990 918 4196 918 6606zm36674-59c0 2450-360 4685-1067 6696-706 2010-1722 3737-3021 5154s-2878 2532-4710 3318c-1833 785-3861 1185-6073 1185s-4231-399-6044-1185c-1812-785-3381-1900-4680-3318-1299-1417-2321-3141-3052-5154-731-2015-1096-4246-1096-6696 0-2448 370-4675 1096-6665s1757-3703 3081-5125c1323-1422 2893-2518 4710-3288s3811-1155 5983-1155 4178 385 6014 1155c1837 770 3411 1871 4710 3288 1298 1417 2324 3135 3051 5125 726 1990 1096 4217 1096 6665zm-7346 0c0-3080-666-5524-1985-7317-1318-1793-3169-2695-5539-2695-2369 0-4217 899-5539 2695-1323 1798-1985 4237-1985 7317 0 3120 666 5594 1985 7407 1318 1812 3170 2725 5539 2725 2370 0 4221-913 5539-2725 1319-1813 1985-4286 1985-7407zM25996 15831c2741 0 4964 2223 4964 4964 0 2743-2223 4964-4964 4964-2743 0-4965-2222-4965-4964 0-2741 2223-4964 4965-4964z"/></svg>