<svg xmlns="http://www.w3.org/2000/svg" viewBox="0 0 93273.003 83691.002" fill="url(#a)"><linearGradient id="a" y2="97574.398" x2="29254.699" y1="25510.6" x1="98558.297" gradientUnits="userSpaceOnUse"><stop stop-color="#A82682" offset="0"/><stop stop-color="#E51A4B" offset=".522"/><stop stop-color="#FECC00" offset="1"/></linearGradient><path d="M23666 157h48294l-3880 5969H23666c-4864 0-9287 1993-12496 5200-3209 3209-5200 7633-5200 12497v36201c0 4864 1993 9288 5200 12496 3209 3209 7632 5202 12496 5202h36202c4864 0 9288-1993 12496-5202 3209-3208 5202-7632 5202-12496V23823c0-1194-122-2361-350-3490h-8988L80750 0l12523 20333h-9997c170 1140 257 2304 257 3490v36201c0 6511-2661 12429-6948 16717-4289 4287-10206 6950-16717 6950H23666c-6511 0-12429-2662-16716-6950C2663 72452 0 66535 0 60024V23823c0-6511 2662-12429 6950-16717C11237 2819 17155 156 23666 156zm1559 15207c2661 0 4818 2157 4818 4817s-2157 4818-4818 4818c-2660 0-4817-2158-4817-4818s2157-4817 4817-4817zm-3470 12624h7245v32259h-7245V27988zm17649 3169c1342-383 3086-748 5232-1091 2146-345 4522-519 7128-519 2453 0 4504 335 6152 1006s2961 1610 3938 2817 1668 2663 2069 4369c403 1706 604 3574 604 5606v16903h-6956V44438c0-1610-106-2980-317-4110s-555-2050-1035-2759c-480-710-1130-1227-1955-1553-824-325-1831-489-3019-489-881 0-1801 58-2759 174-958 115-1668 210-2127 287v24261h-6957V31158z"/></svg>