<svg viewBox="0 0 179.7 149.1" xmlns="http://www.w3.org/2000/svg"><linearGradient id="a" x1="23.582" x2="159.1" y1="9.966" y2="180.72" gradientUnits="userSpaceOnUse"><stop stop-color="#486BED" offset=".002"/><stop stop-color="#4359D1" offset=".077"/><stop stop-color="#3B3AA2" offset=".218"/><stop stop-color="#362480" offset=".342"/><stop stop-color="#32166B" offset=".445"/><stop stop-color="#311163" offset=".512"/><stop stop-color="#30105D" stop-opacity=".472" offset=".77"/><stop stop-color="#2D0D53" stop-opacity="0" offset="1"/></linearGradient><path d="M136.1 117.3c-23.4 33.7-69.6 42-103.3 18.6s-42-69.6-18.6-103.3S83.8-9.4 117.5 14s42 69.6 18.6 103.3z" fill="url(#a)" opacity=".06"/><linearGradient id="b" x1="32.585" x2="139.39" y1="22.751" y2="157.32" gradientUnits="userSpaceOnUse"><stop stop-color="#4358BE" offset=".002"/><stop stop-color="#4B50B6" offset=".209"/><stop stop-color="#5248AE" offset=".512"/><stop stop-color="#5044A8" stop-opacity=".819" offset=".601"/><stop stop-color="#493A98" stop-opacity=".585" offset=".715"/><stop stop-color="#3E297D" stop-opacity=".321" offset=".843"/><stop stop-color="#2F1159" stop-opacity=".038" offset=".981"/><stop stop-color="#2D0D53" stop-opacity="0" offset="1"/></linearGradient><circle cx="73.2" cy="73.9" r="58.5" fill="url(#b)"/><linearGradient id="c" x1="48.478" x2="84.478" y1="-444.22" y2="-444.22" gradientTransform="rotate(39.718 -620.499 -47.134)" gradientUnits="userSpaceOnUse"><stop stop-color="#45ECDB" offset="0"/><stop stop-color="#44B9BF" stop-opacity=".983" offset=".109"/><stop stop-color="#437C9E" stop-opacity=".962" offset=".254"/><stop stop-color="#434C83" stop-opacity=".941" offset=".387"/><stop stop-color="#422970" stop-opacity=".924" offset=".503"/><stop stop-color="#421464" stop-opacity=".909" offset=".599"/><stop stop-color="#420C60" stop-opacity=".9" offset=".661"/><stop stop-color="#400C5F" stop-opacity=".42" offset=".842"/><stop stop-color="#380C5A" stop-opacity=".169" offset=".936"/><stop stop-color="#2D0D53" stop-opacity="0" offset="1"/></linearGradient><path d="M147.8 74.9c6.4-7.6 17.7-8.7 25.3-2.3s8.7 17.7 2.3 25.3-17.7 8.7-25.3 2.3c-7.6-6.3-8.6-17.7-2.3-25.3z" fill="url(#c)" opacity=".2"/><linearGradient id="d" x1="93.387" x2="124.3" y1="40.772" y2="77.359" gradientUnits="userSpaceOnUse"><stop stop-color="#300D5D" offset="0"/><stop stop-color="#2D0D53" stop-opacity="0" offset="1"/></linearGradient><path d="M123.5 57.4c0 8.8-7.2 16-16 16s-16-7.2-16-16 7.2-16 16-16 16 7.2 16 16z" fill="url(#d)" opacity=".1"/><linearGradient id="e" x1="80.106" x2="94.449" y1="26.773" y2="43.752" gradientUnits="userSpaceOnUse"><stop stop-color="#300D5D" offset="0"/><stop stop-color="#2D0D53" stop-opacity="0" offset="1"/></linearGradient><path d="M94.1 34.5c0 4.1-3.3 7.4-7.4 7.4s-7.4-3.3-7.4-7.4 3.3-7.4 7.4-7.4 7.4 3.3 7.4 7.4z" fill="url(#e)" opacity=".1"/></svg>