<svg viewBox="0 0 628.5 257.2" xmlns="http://www.w3.org/2000/svg"><g opacity=".08"><linearGradient id="a" x1="-1324.2" x2="-710.3" y1="573.69" y2="573.69" gradientTransform="scale(-1) rotate(7.718 4485.422 5441.948)" gradientUnits="userSpaceOnUse"><stop stop-color="#486BED" offset=".002"/><stop stop-color="#4359D1" offset=".077"/><stop stop-color="#3B3AA2" offset=".218"/><stop stop-color="#362480" offset=".342"/><stop stop-color="#32166B" offset=".445"/><stop stop-color="#311163" offset=".512"/><stop stop-color="#30105D" stop-opacity=".472" offset=".77"/><stop stop-color="#2D0D53" stop-opacity="0" offset="1"/></linearGradient><path d="M416.8 216.8c58.6-1 122.7-4.1 166.2-43.4 16.6-15 28.8-34.4 36.9-55.3 7.7-19.6 11.8-41.6 5.8-61.8-9.4-31.8-42.5-52.5-75.5-55.7-33-3.3-65.8 7.8-95.9 21.8S395.5 53.7 364 64.1c-77.2 25.6-161 8-241.9-.7-25.6-2.7-53.1-4.2-75.2 9.1-11.3 6.8-20.2 16.9-27.6 27.7C5.5 120.1-4.1 145 1.8 168.5 9.2 197.9 38 216.3 65.9 228c95.8 40.1 205.5 35 305.8 8.3 30.4-8.1 60.5-18.1 91.9-21" fill="url(#a)"/></g></svg>