<svg viewBox="0 0 536.6 264.7" xmlns="http://www.w3.org/2000/svg"><g opacity=".08"><linearGradient id="a" x2="536.65" y1="132.35" y2="132.35" gradientUnits="userSpaceOnUse"><stop stop-color="#486BED" offset=".002"/><stop stop-color="#4359D1" offset=".077"/><stop stop-color="#3B3AA2" offset=".218"/><stop stop-color="#362480" offset=".342"/><stop stop-color="#32166B" offset=".445"/><stop stop-color="#311163" offset=".512"/><stop stop-color="#30105D" stop-opacity=".472" offset=".77"/><stop stop-color="#2D0D53" stop-opacity="0" offset="1"/></linearGradient><path d="M167.7 61.7c-50.6 7.7-105.8 17.9-138.8 57.1C16.3 133.7 7.9 152 3.3 171-1 188.9-2 208.4 5.6 225.2c11.9 26.5 42.9 40.5 71.9 39.4s56.1-14.5 80.5-30.1c24.4-15.7 47.3-34 73.4-46.7C295.3 156.6 369.9 162 441 160c22.5-.6 46.5-2.6 64.1-16.7 9-7.2 15.5-17 20.7-27.2 9.6-18.9 15-41.6 7.1-61.3-9.9-24.6-37-37.2-62.6-44-87.7-23.5-182.1-6.2-265.9 28.7-25.4 10.6-50.3 22.8-77.1 29" fill="url(#a)"/></g></svg>